<svg width="3071" height="2410" xmlns="http://www.w3.org/2000/svg" xmlns:xlink="http://www.w3.org/1999/xlink" xml:space="preserve" overflow="hidden"><g transform="translate(-666 -32)"><path d="M904.5 1943.5 3733.5 1943.5" stroke="#EBEBEB" stroke-width="3.37867" stroke-linejoin="round" stroke-miterlimit="10" fill="none" fill-rule="evenodd"/><path d="M904.5 1372.5 3733.5 1372.5" stroke="#EBEBEB" stroke-width="3.37867" stroke-linejoin="round" stroke-miterlimit="10" fill="none" fill-rule="evenodd"/><path d="M904.5 801.5 3733.5 801.5" stroke="#EBEBEB" stroke-width="3.37867" stroke-linejoin="round" stroke-miterlimit="10" fill="none" fill-rule="evenodd"/><path d="M904.5 230.5 3733.5 230.5" stroke="#EBEBEB" stroke-width="3.37867" stroke-linejoin="round" stroke-miterlimit="10" fill="none" fill-rule="evenodd"/><path d="M1104.5 2277.5 1104.5 35.4999" stroke="#EBEBEB" stroke-width="3.37867" stroke-linejoin="round" stroke-miterlimit="10" fill="none" fill-rule="evenodd"/><path d="M1818.5 2277.5 1818.5 35.4999" stroke="#EBEBEB" stroke-width="3.37867" stroke-linejoin="round" stroke-miterlimit="10" fill="none" fill-rule="evenodd"/><path d="M2533.5 2277.5 2533.5 35.4999" stroke="#EBEBEB" stroke-width="3.37867" stroke-linejoin="round" stroke-miterlimit="10" fill="none" fill-rule="evenodd"/><path d="M3247.5 2277.5 3247.5 35.4999" stroke="#EBEBEB" stroke-width="3.37867" stroke-linejoin="round" stroke-miterlimit="10" fill="none" fill-rule="evenodd"/><path d="M904.5 2229.5 3733.5 2229.5" stroke="#EBEBEB" stroke-width="6.75735" stroke-linejoin="round" stroke-miterlimit="10" fill="none" fill-rule="evenodd"/><path d="M904.5 1658.5 3733.5 1658.5" stroke="#EBEBEB" stroke-width="6.75735" stroke-linejoin="round" stroke-miterlimit="10" fill="none" fill-rule="evenodd"/><path d="M904.5 1086.5 3733.5 1086.5" stroke="#EBEBEB" stroke-width="6.75735" stroke-linejoin="round" stroke-miterlimit="10" fill="none" fill-rule="evenodd"/><path d="M904.5 515.5 3733.5 515.5" stroke="#EBEBEB" stroke-width="6.75735" stroke-linejoin="round" stroke-miterlimit="10" fill="none" fill-rule="evenodd"/><path d="M1461.5 2277.5 1461.5 35.4999" stroke="#EBEBEB" stroke-width="6.75735" stroke-linejoin="round" stroke-miterlimit="10" fill="none" fill-rule="evenodd"/><path d="M2175.5 2277.5 2175.5 35.4999" stroke="#EBEBEB" stroke-width="6.75735" stroke-linejoin="round" stroke-miterlimit="10" fill="none" fill-rule="evenodd"/><path d="M2890.5 2277.5 2890.5 35.4999" stroke="#EBEBEB" stroke-width="6.75735" stroke-linejoin="round" stroke-miterlimit="10" fill="none" fill-rule="evenodd"/><path d="M3604.5 2277.5 3604.5 35.4999" stroke="#EBEBEB" stroke-width="6.75735" stroke-linejoin="round" stroke-miterlimit="10" fill="none" fill-rule="evenodd"/><path d="M1032 137 1317.77 1653.43 1603.55 2013.98 1889.33 2106.49 2175.1 2124.75 2460.88 2139.52 2746.67 2152.39 3032.45 2162.56 3318.22 2168.58 3604 2175" stroke="#000000" stroke-width="3.91243" stroke-linejoin="round" stroke-miterlimit="10" fill="none" fill-rule="evenodd"/><path d="M1049.5 137.495C1049.5 160.168 1015.5 160.168 1015.5 137.495 1015.5 114.835 1049.5 114.835 1049.5 137.495" stroke="#000000" stroke-width="2.59843" stroke-linecap="round" stroke-linejoin="round" stroke-miterlimit="10" fill-rule="evenodd"/><path d="M1335.5 1653.5C1335.5 1676.17 1301.5 1676.17 1301.5 1653.5 1301.5 1630.83 1335.5 1630.83 1335.5 1653.5" stroke="#000000" stroke-width="2.59843" stroke-linecap="round" stroke-linejoin="round" stroke-miterlimit="10" fill-rule="evenodd"/><path d="M1621.5 2014.5C1621.5 2037.17 1587.5 2037.17 1587.5 2014.5 1587.5 1991.83 1621.5 1991.83 1621.5 2014.5" stroke="#000000" stroke-width="2.59843" stroke-linecap="round" stroke-linejoin="round" stroke-miterlimit="10" fill-rule="evenodd"/><path d="M1907.5 2106.5C1907.5 2129.17 1873.5 2129.17 1873.5 2106.5 1873.5 2083.83 1907.5 2083.83 1907.5 2106.5" stroke="#000000" stroke-width="2.59843" stroke-linecap="round" stroke-linejoin="round" stroke-miterlimit="10" fill-rule="evenodd"/><path d="M2192.5 2125.51C2192.5 2148.17 2158.5 2148.17 2158.5 2125.51 2158.5 2102.83 2192.5 2102.83 2192.5 2125.51" stroke="#000000" stroke-width="2.59843" stroke-linecap="round" stroke-linejoin="round" stroke-miterlimit="10" fill-rule="evenodd"/><path d="M2478.5 2139.5C2478.5 2162.17 2444.5 2162.17 2444.5 2139.5 2444.5 2116.83 2478.5 2116.83 2478.5 2139.5" stroke="#000000" stroke-width="2.59843" stroke-linecap="round" stroke-linejoin="round" stroke-miterlimit="10" fill-rule="evenodd"/><path d="M2764.5 2152.5C2764.5 2175.17 2730.5 2175.17 2730.5 2152.5 2730.5 2129.83 2764.5 2129.83 2764.5 2152.5" stroke="#000000" stroke-width="2.59843" stroke-linecap="round" stroke-linejoin="round" stroke-miterlimit="10" fill-rule="evenodd"/><path d="M3050.5 2162.99C3050.5 2185 3016.5 2185 3016.5 2162.99 3016.5 2141 3050.5 2141 3050.5 2162.99" stroke="#000000" stroke-width="2.59843" stroke-linecap="round" stroke-linejoin="round" stroke-miterlimit="10" fill-rule="evenodd"/><path d="M3335.5 2168.99C3335.5 2191 3302.5 2191 3302.5 2168.99 3302.5 2147 3335.5 2147 3335.5 2168.99" stroke="#000000" stroke-width="2.59843" stroke-linecap="round" stroke-linejoin="round" stroke-miterlimit="10" fill-rule="evenodd"/><path d="M3621.5 2175.5C3621.5 2198.17 3587.5 2198.17 3587.5 2175.5 3587.5 2152.83 3621.5 2152.83 3621.5 2175.5" stroke="#000000" stroke-width="2.59843" stroke-linecap="round" stroke-linejoin="round" stroke-miterlimit="10" fill-rule="evenodd"/><path d="M1037.04 88.0085 1032.7 88.0085 1032.7 59.1775C1031.65 60.2234 1030.28 61.2693 1028.59 62.3009 1026.89 63.3468 1025.38 64.1238 1024.04 64.6327L1024.04 60.2658C1026.45 59.0927 1028.56 57.6512 1030.39 55.9408 1032.19 54.2593 1033.47 52.6198 1034.25 51.0084L1037.04 51.0084Z" fill-rule="evenodd"/><path d="M1330.07 1600.69 1330.07 1605.16 1305.07 1605.16C1305.03 1604.04 1305.22 1602.97 1305.62 1601.94 1306.25 1600.24 1307.26 1598.57 1308.67 1596.9 1310.06 1595.26 1312.09 1593.34 1314.75 1591.17 1318.85 1587.81 1321.62 1585.14 1323.08 1583.16 1324.51 1581.2 1325.24 1579.34 1325.25 1577.57 1325.24 1575.74 1324.58 1574.19 1323.28 1572.91 1321.96 1571.66 1320.23 1571.02 1318.13 1571.01 1315.88 1571.02 1314.1 1571.69 1312.76 1573.02 1311.41 1574.37 1310.73 1576.23 1310.73 1578.6L1305.96 1578.1C1306.28 1574.55 1307.5 1571.83 1309.64 1569.96 1311.76 1568.1 1314.63 1567.17 1318.23 1567.16 1321.86 1567.17 1324.73 1568.18 1326.85 1570.18 1328.96 1572.2 1330.02 1574.69 1330.02 1577.67 1330.02 1579.19 1329.7 1580.69 1329.09 1582.14 1328.46 1583.62 1327.43 1585.16 1326.01 1586.76 1324.55 1588.38 1322.18 1590.6 1318.85 1593.42 1316.05 1595.77 1314.27 1597.35 1313.49 1598.18 1312.69 1599.02 1312.04 1599.86 1311.53 1600.69Z" fill-rule="evenodd"/><path d="M1592.09 1955.72 1596.59 1955.11C1597.1 1957.71 1597.98 1959.56 1599.22 1960.7 1600.46 1961.84 1601.96 1962.41 1603.76 1962.41 1605.87 1962.41 1607.66 1961.67 1609.12 1960.19 1610.57 1958.7 1611.3 1956.86 1611.31 1954.65 1611.3 1952.57 1610.62 1950.84 1609.29 1949.48 1607.92 1948.12 1606.21 1947.44 1604.14 1947.42 1603.27 1947.44 1602.22 1947.61 1600.96 1947.93L1601.47 1943.93C1601.77 1943.95 1602 1943.97 1602.19 1943.97 1604.1 1943.97 1605.83 1943.47 1607.36 1942.46 1608.89 1941.44 1609.65 1939.88 1609.67 1937.76 1609.65 1936.1 1609.1 1934.71 1607.99 1933.61 1606.87 1932.52 1605.42 1931.97 1603.66 1931.96 1601.91 1931.97 1600.44 1932.53 1599.29 1933.63 1598.11 1934.75 1597.36 1936.42 1597.04 1938.65L1592.54 1937.84C1593.08 1934.78 1594.33 1932.42 1596.3 1930.72 1598.24 1929.05 1600.67 1928.21 1603.57 1928.19 1605.56 1928.21 1607.4 1928.63 1609.09 1929.51 1610.78 1930.39 1612.06 1931.59 1612.96 1933.07 1613.83 1934.58 1614.28 1936.18 1614.29 1937.86 1614.28 1939.49 1613.86 1940.95 1613.01 1942.26 1612.17 1943.57 1610.9 1944.63 1609.25 1945.4 1611.4 1945.91 1613.08 1946.95 1614.29 1948.55 1615.49 1950.15 1616.09 1952.16 1616.09 1954.55 1616.09 1957.81 1614.93 1960.56 1612.59 1962.81 1610.26 1965.07 1607.31 1966.18 1603.75 1966.19 1600.51 1966.18 1597.84 1965.22 1595.72 1963.28 1593.6 1961.34 1592.39 1958.82 1592.09 1955.72Z" fill-rule="evenodd"/><path d="M1892.43 2058.21 1892.43 2049.11 1876.12 2049.11 1876.12 2044.83 1893.28 2020.21 1897.05 2020.21 1897.05 2044.83 1902.12 2044.83 1902.12 2049.11 1897.05 2049.11 1897.05 2058.21ZM1892.43 2044.83 1892.43 2027.7 1880.67 2044.83Z" fill-rule="evenodd"/><path d="M2163.15 2066.64 2168.01 2066.24C2168.37 2068.62 2169.21 2070.41 2170.53 2071.6 2171.83 2072.79 2173.4 2073.39 2175.27 2073.39 2177.48 2073.39 2179.38 2072.54 2180.92 2070.86 2182.46 2069.17 2183.22 2066.93 2183.24 2064.14 2183.22 2061.5 2182.48 2059.41 2181.01 2057.87 2179.52 2056.33 2177.57 2055.56 2175.18 2055.56 2173.68 2055.56 2172.33 2055.9 2171.15 2056.59 2169.93 2057.27 2168.99 2058.16 2168.33 2059.23L2163.98 2058.67 2167.63 2039.21 2186.37 2039.21 2186.37 2043.64 2171.34 2043.64 2169.3 2053.83C2171.55 2052.26 2173.92 2051.46 2176.43 2051.44 2179.71 2051.46 2182.48 2052.61 2184.75 2054.89 2187.01 2057.2 2188.14 2060.15 2188.15 2063.72 2188.14 2067.17 2187.14 2070.13 2185.16 2072.62 2182.73 2075.68 2179.43 2077.19 2175.27 2077.21 2171.83 2077.19 2169.04 2076.25 2166.87 2074.32 2164.7 2072.4 2163.46 2069.84 2163.15 2066.64Z" fill-rule="evenodd"/><path d="M2472.53 2062.47 2468.1 2062.83C2467.69 2061.04 2467.12 2059.74 2466.41 2058.92 2465.18 2057.63 2463.71 2056.99 2461.95 2056.97 2460.53 2056.99 2459.27 2057.39 2458.2 2058.19 2456.79 2059.24 2455.69 2060.77 2454.88 2062.78 2454.07 2064.8 2453.64 2067.67 2453.61 2071.39 2454.67 2069.72 2455.99 2068.48 2457.55 2067.67 2459.1 2066.85 2460.72 2066.45 2462.44 2066.44 2465.39 2066.45 2467.93 2067.57 2470.04 2069.81 2472.11 2072.05 2473.16 2074.95 2473.17 2078.5 2473.16 2080.84 2472.67 2083.01 2471.7 2085.01 2470.72 2087.01 2469.37 2088.55 2467.65 2089.61 2465.92 2090.68 2463.97 2091.19 2461.79 2091.21 2458.07 2091.19 2455.03 2089.81 2452.69 2087.01 2450.33 2084.22 2449.16 2079.61 2449.17 2073.16 2449.16 2065.98 2450.46 2060.74 2453.06 2057.47 2455.32 2054.63 2458.38 2053.22 2462.21 2053.2 2465.07 2053.22 2467.41 2054.03 2469.24 2055.67 2471.07 2057.32 2472.17 2059.59 2472.53 2062.47ZM2454.31 2078.51C2454.29 2080.11 2454.61 2081.61 2455.28 2083.04 2455.92 2084.48 2456.84 2085.58 2458.03 2086.32 2459.19 2087.08 2460.41 2087.45 2461.72 2087.45 2463.59 2087.45 2465.21 2086.68 2466.58 2085.12 2467.92 2083.57 2468.6 2081.46 2468.61 2078.77 2468.6 2076.22 2467.93 2074.19 2466.61 2072.7 2465.25 2071.23 2463.57 2070.49 2461.54 2070.48 2459.52 2070.49 2457.81 2071.23 2456.41 2072.7 2454.99 2074.19 2454.29 2076.13 2454.31 2078.51Z" fill-rule="evenodd"/><path d="M2735.21 2071.62 2735.21 2067.21 2759.21 2067.21 2759.21 2070.79C2756.84 2073.35 2754.5 2076.71 2752.18 2080.91 2749.86 2085.13 2748.07 2089.45 2746.82 2093.9 2745.9 2097.05 2745.31 2100.48 2745.07 2104.21L2740.39 2104.21C2740.44 2101.26 2741.01 2097.71 2742.11 2093.52 2743.21 2089.35 2744.79 2085.33 2746.84 2081.44 2748.88 2077.58 2751.06 2074.3 2753.36 2071.62Z" fill-rule="evenodd"/><path d="M3027.46 2093.85C3025.51 2093.15 3024.08 2092.14 3023.17 2090.81 3022.22 2089.5 3021.75 2087.92 3021.77 2086.07 3021.75 2083.3 3022.74 2080.96 3024.74 2079.06 3026.72 2077.17 3029.35 2076.23 3032.66 2076.21 3035.96 2076.23 3038.64 2077.19 3040.67 2079.13 3042.68 2081.08 3043.68 2083.44 3043.7 2086.19 3043.68 2087.98 3043.21 2089.52 3042.3 2090.82 3041.37 2092.14 3039.97 2093.15 3038.1 2093.85 3040.42 2094.63 3042.2 2095.86 3043.42 2097.56 3044.63 2099.26 3045.22 2101.3 3045.24 2103.65 3045.22 2106.92 3044.07 2109.66 3041.79 2111.89 3039.49 2114.1 3036.47 2115.2 3032.75 2115.21 3028.99 2115.2 3025.98 2114.1 3023.68 2111.87 3021.37 2109.65 3020.22 2106.86 3020.24 2103.52 3020.22 2101.05 3020.85 2098.97 3022.1 2097.28 3023.35 2095.61 3025.13 2094.47 3027.46 2093.85ZM3026.53 2085.91C3026.51 2087.73 3027.1 2089.21 3028.26 2090.35 3029.41 2091.49 3030.91 2092.07 3032.76 2092.07 3034.55 2092.07 3036.02 2091.51 3037.17 2090.37 3038.32 2089.24 3038.89 2087.83 3038.91 2086.18 3038.89 2084.46 3038.31 2083.03 3037.13 2081.84 3035.93 2080.68 3034.46 2080.1 3032.72 2080.08 3030.94 2080.1 3029.46 2080.67 3028.29 2081.79 3027.1 2082.95 3026.51 2084.31 3026.53 2085.91ZM3025.03 2103.55C3025.03 2104.9 3025.33 2106.19 3025.96 2107.43 3026.59 2108.69 3027.52 2109.66 3028.77 2110.33 3029.99 2111.02 3031.33 2111.36 3032.79 2111.36 3035 2111.36 3036.84 2110.64 3038.29 2109.21 3039.73 2107.77 3040.46 2105.94 3040.48 2103.7 3040.46 2101.46 3039.72 2099.6 3038.24 2098.1 3036.74 2096.64 3034.87 2095.89 3032.63 2095.89 3030.45 2095.89 3028.63 2096.62 3027.18 2098.09 3025.74 2099.55 3025.03 2101.38 3025.03 2103.55Z" fill-rule="evenodd"/><path d="M3306.97 2111.73 3311.46 2111.32C3311.84 2113.45 3312.55 2114.99 3313.63 2115.94 3314.68 2116.89 3316.07 2117.36 3317.76 2117.36 3319.19 2117.36 3320.45 2117.04 3321.54 2116.38 3322.6 2115.72 3323.49 2114.84 3324.19 2113.73 3324.88 2112.64 3325.45 2111.15 3325.93 2109.26 3326.38 2107.4 3326.61 2105.49 3326.63 2103.53 3326.61 2103.34 3326.61 2103.02 3326.6 2102.59 3325.67 2104.09 3324.38 2105.3 3322.78 2106.23 3321.15 2107.16 3319.4 2107.63 3317.53 2107.62 3314.36 2107.63 3311.71 2106.49 3309.53 2104.19 3307.35 2101.9 3306.25 2098.87 3306.27 2095.12 3306.25 2091.25 3307.39 2088.13 3309.68 2085.76 3311.94 2083.4 3314.79 2082.23 3318.23 2082.21 3320.68 2082.23 3322.94 2082.89 3325.01 2084.22 3327.05 2085.57 3328.61 2087.49 3329.68 2089.95 3330.73 2092.44 3331.25 2096.01 3331.27 2100.69 3331.25 2105.58 3330.73 2109.46 3329.68 2112.35 3328.61 2115.25 3327.05 2117.46 3324.98 2118.96 3322.9 2120.47 3320.45 2121.2 3317.66 2121.21 3314.67 2121.2 3312.25 2120.39 3310.37 2118.74 3308.47 2117.1 3307.33 2114.75 3306.97 2111.73ZM3326.09 2094.89C3326.08 2092.21 3325.36 2090.07 3323.95 2088.47 3322.5 2086.9 3320.78 2086.11 3318.8 2086.1 3316.71 2086.11 3314.9 2086.96 3313.37 2088.66 3311.82 2090.36 3311.07 2092.57 3311.07 2095.27 3311.07 2097.71 3311.8 2099.69 3313.25 2101.2 3314.71 2102.72 3316.51 2103.47 3318.67 2103.47 3320.81 2103.47 3322.59 2102.72 3323.99 2101.2 3325.38 2099.69 3326.08 2097.58 3326.09 2094.89Z" fill-rule="evenodd"/><path d="M3595.3 2126.21 3590.63 2126.21 3590.63 2097.38C3589.49 2098.42 3588.02 2099.47 3586.2 2100.5 3584.37 2101.54 3582.74 2102.32 3581.29 2102.83L3581.29 2098.46C3583.89 2097.29 3586.17 2095.85 3588.13 2094.14 3590.07 2092.46 3591.46 2090.82 3592.29 2089.21L3595.3 2089.21Z" fill-rule="evenodd"/><path d="M3606.3 2108.22C3606.29 2103.84 3606.76 2100.3 3607.7 2097.6 3608.62 2094.93 3610.01 2092.86 3611.86 2091.39 3613.7 2089.95 3616.01 2089.22 3618.8 2089.21 3620.84 2089.22 3622.65 2089.62 3624.21 2090.42 3625.76 2091.24 3627.04 2092.39 3628.07 2093.91 3629.07 2095.42 3629.86 2097.27 3630.43 2099.44 3631.01 2101.63 3631.3 2104.55 3631.3 2108.22 3631.3 2112.61 3630.83 2116.13 3629.92 2118.8 3628.98 2121.5 3627.59 2123.57 3625.77 2125.02 3623.92 2126.48 3621.59 2127.19 3618.8 2127.21 3615.09 2127.19 3612.2 2125.92 3610.09 2123.35 3607.55 2120.27 3606.29 2115.23 3606.3 2108.22ZM3611.14 2108.22C3611.14 2114.35 3611.87 2118.42 3613.34 2120.43 3614.82 2122.46 3616.62 2123.45 3618.8 2123.45 3620.95 2123.45 3622.77 2122.44 3624.26 2120.41 3625.71 2118.39 3626.45 2114.33 3626.46 2108.22 3626.45 2102.11 3625.71 2098.04 3624.26 2096.02 3622.77 2094.02 3620.93 2093.01 3618.76 2092.99 3616.58 2093.01 3614.86 2093.89 3613.58 2095.66 3611.95 2097.93 3611.14 2102.13 3611.14 2108.22Z" fill-rule="evenodd"/><path d="M844.02 2229.22C844.02 2224.6 844.493 2220.87 845.466 2218.05 846.426 2215.24 847.872 2213.07 849.79 2211.52 851.694 2210 854.1 2209.23 857.021 2209.22 859.14 2209.23 861.015 2209.65 862.647 2210.5 864.251 2211.34 865.582 2212.56 866.642 2214.15 867.687 2215.76 868.517 2217.7 869.119 2219.97 869.706 2222.26 870.007 2225.34 870.021 2229.22 870.007 2233.82 869.519 2237.53 868.575 2240.36 867.601 2243.19 866.17 2245.38 864.265 2246.91 862.347 2248.46 859.927 2249.22 857.021 2249.22 853.155 2249.22 850.134 2247.87 847.958 2245.15 845.323 2241.91 844.02 2236.59 844.02 2229.22ZM849.046 2229.22C849.046 2235.66 849.805 2239.95 851.336 2242.06 852.869 2244.2 854.759 2245.25 857.021 2245.25 859.254 2245.25 861.144 2244.18 862.676 2242.05 864.208 2239.91 864.981 2235.64 864.981 2229.22 864.981 2222.79 864.208 2218.51 862.676 2216.37 861.144 2214.26 859.24 2213.2 856.963 2213.2 854.701 2213.2 852.912 2214.14 851.58 2216.01 849.891 2218.4 849.046 2222.8 849.046 2229.22Z" fill-rule="evenodd"/><path d="M777.012 1672.46 777.012 1677.17 750.018 1677.17C749.974 1675.99 750.164 1674.86 750.604 1673.76 751.279 1671.97 752.379 1670.21 753.904 1668.47 755.399 1666.75 757.584 1664.74 760.458 1662.43 764.886 1658.9 767.891 1656.1 769.461 1654.01 771.015 1651.95 771.792 1649.98 771.807 1648.12 771.792 1646.19 771.088 1644.56 769.666 1643.21 768.244 1641.88 766.381 1641.21 764.109 1641.21 761.675 1641.21 759.754 1641.93 758.317 1643.34 756.865 1644.76 756.132 1646.72 756.117 1649.21L750.956 1648.69C751.308 1644.96 752.642 1642.1 754.944 1640.13 757.246 1638.17 760.34 1637.18 764.226 1637.16 768.141 1637.18 771.235 1638.24 773.522 1640.35 775.795 1642.47 776.939 1645.1 776.953 1648.22 776.939 1649.84 776.601 1651.41 775.941 1652.94 775.267 1654.48 774.167 1656.1 772.613 1657.8 771.059 1659.5 768.478 1661.83 764.886 1664.79 761.88 1667.27 759.945 1668.94 759.094 1669.81 758.229 1670.7 757.525 1671.59 756.983 1672.46Z" fill-rule="evenodd"/><path d="M782.014 1657.67C782.014 1652.93 782.487 1649.11 783.461 1646.22 784.42 1643.33 785.866 1641.11 787.784 1639.53 789.689 1637.97 792.094 1637.18 795.015 1637.17 797.134 1637.18 799.009 1637.61 800.642 1638.48 802.245 1639.34 803.576 1640.6 804.636 1642.22 805.681 1643.87 806.511 1645.86 807.113 1648.19 807.7 1650.54 808.001 1653.7 808.015 1657.67 808.001 1662.39 807.514 1666.19 806.569 1669.09 805.595 1671.98 804.164 1674.23 802.259 1675.8 800.341 1677.39 797.921 1678.17 795.015 1678.17 791.149 1678.17 788.128 1676.78 785.952 1674 783.318 1670.67 782.014 1665.22 782.014 1657.67ZM787.04 1657.67C787.04 1664.27 787.799 1668.67 789.331 1670.83 790.863 1673.02 792.753 1674.1 795.015 1674.1 797.248 1674.1 799.138 1673.01 800.67 1670.82 802.202 1668.63 802.975 1664.24 802.975 1657.67 802.975 1651.07 802.202 1646.69 800.67 1644.5 799.138 1642.34 797.234 1641.24 794.958 1641.24 792.695 1641.24 790.906 1642.21 789.574 1644.13 787.885 1646.58 787.04 1651.09 787.04 1657.67Z" fill-rule="evenodd"/><path d="M813.018 1657.67C813.018 1652.93 813.49 1649.11 814.464 1646.22 815.423 1643.33 816.869 1641.11 818.787 1639.53 820.692 1637.97 823.097 1637.18 826.018 1637.17 828.137 1637.18 830.012 1637.61 831.644 1638.48 833.248 1639.34 834.579 1640.6 835.639 1642.22 836.684 1643.87 837.514 1645.86 838.116 1648.19 838.703 1650.54 839.003 1653.7 839.018 1657.67 839.003 1662.39 838.517 1666.19 837.572 1669.09 836.598 1671.98 835.166 1674.23 833.262 1675.8 831.344 1677.39 828.924 1678.17 826.018 1678.17 822.152 1678.17 819.131 1676.78 816.955 1674 814.32 1670.67 813.018 1665.22 813.018 1657.67ZM818.043 1657.67C818.043 1664.27 818.802 1668.67 820.334 1670.83 821.865 1673.02 823.755 1674.1 826.018 1674.1 828.251 1674.1 830.141 1673.01 831.673 1670.82 833.205 1668.63 833.978 1664.24 833.978 1657.67 833.978 1651.07 833.205 1646.69 831.673 1644.5 830.141 1642.34 828.237 1641.24 825.96 1641.24 823.698 1641.24 821.908 1642.21 820.577 1644.13 818.887 1646.58 818.043 1651.09 818.043 1657.67Z" fill-rule="evenodd"/><path d="M844.02 1657.67C844.02 1652.93 844.493 1649.11 845.466 1646.22 846.426 1643.33 847.872 1641.11 849.79 1639.53 851.694 1637.97 854.1 1637.18 857.021 1637.17 859.14 1637.18 861.015 1637.61 862.647 1638.48 864.251 1639.34 865.582 1640.6 866.642 1642.22 867.687 1643.87 868.517 1645.86 869.119 1648.19 869.706 1650.54 870.007 1653.7 870.021 1657.67 870.007 1662.39 869.519 1666.19 868.575 1669.09 867.601 1671.98 866.17 1674.23 864.265 1675.8 862.347 1677.39 859.927 1678.17 857.021 1678.17 853.155 1678.17 850.134 1676.78 847.958 1674 845.323 1670.67 844.02 1665.22 844.02 1657.67ZM849.046 1657.67C849.046 1664.27 849.805 1668.67 851.336 1670.83 852.869 1673.02 854.759 1674.1 857.021 1674.1 859.254 1674.1 861.144 1673.01 862.676 1670.82 864.208 1668.63 864.981 1664.24 864.981 1657.67 864.981 1651.07 864.208 1646.69 862.676 1644.5 861.144 1642.34 859.24 1641.24 856.963 1641.24 854.701 1641.24 852.912 1642.21 851.58 1644.13 849.891 1646.58 849.046 1651.09 849.046 1657.67Z" fill-rule="evenodd"/><path d="M766.579 1106.11 766.579 1096.53 749.012 1096.53 749.012 1092.03 767.48 1066.11 771.548 1066.11 771.548 1092.03 777.012 1092.03 777.012 1096.53 771.548 1096.53 771.548 1106.11ZM766.579 1092.03 766.579 1073.99 753.908 1092.03Z" fill-rule="evenodd"/><path d="M782.014 1086.62C782.014 1081.88 782.487 1078.06 783.461 1075.16 784.42 1072.28 785.866 1070.06 787.784 1068.47 789.689 1066.92 792.094 1066.12 795.015 1066.11 797.134 1066.12 799.009 1066.56 800.642 1067.42 802.245 1068.29 803.576 1069.54 804.636 1071.17 805.681 1072.81 806.511 1074.8 807.113 1077.13 807.7 1079.48 808.001 1082.64 808.015 1086.62 808.001 1091.33 807.514 1095.13 806.569 1098.03 805.595 1100.93 804.164 1103.18 802.259 1104.75 800.341 1106.33 797.921 1107.11 795.015 1107.11 791.149 1107.11 788.128 1105.73 785.952 1102.94 783.318 1099.62 782.014 1094.17 782.014 1086.62ZM787.04 1086.62C787.04 1093.22 787.799 1097.61 789.331 1099.77 790.863 1101.96 792.753 1103.05 795.015 1103.05 797.248 1103.05 799.138 1101.95 800.67 1099.76 802.202 1097.57 802.975 1093.19 802.975 1086.62 802.975 1080.02 802.202 1075.64 800.67 1073.44 799.138 1071.28 797.234 1070.19 794.958 1070.19 792.695 1070.19 790.906 1071.15 789.574 1073.07 787.885 1075.52 787.04 1080.03 787.04 1086.62Z" fill-rule="evenodd"/><path d="M813.018 1086.62C813.018 1081.88 813.49 1078.06 814.464 1075.16 815.423 1072.28 816.869 1070.06 818.787 1068.47 820.692 1066.92 823.097 1066.12 826.018 1066.11 828.137 1066.12 830.012 1066.56 831.644 1067.42 833.248 1068.29 834.579 1069.54 835.639 1071.17 836.684 1072.81 837.514 1074.8 838.116 1077.13 838.703 1079.48 839.003 1082.64 839.018 1086.62 839.003 1091.33 838.517 1095.13 837.572 1098.03 836.598 1100.93 835.166 1103.18 833.262 1104.75 831.344 1106.33 828.924 1107.11 826.018 1107.11 822.152 1107.11 819.131 1105.73 816.955 1102.94 814.32 1099.62 813.018 1094.17 813.018 1086.62ZM818.043 1086.62C818.043 1093.22 818.802 1097.61 820.334 1099.77 821.865 1101.96 823.755 1103.05 826.018 1103.05 828.251 1103.05 830.141 1101.95 831.673 1099.76 833.205 1097.57 833.978 1093.19 833.978 1086.62 833.978 1080.02 833.205 1075.64 831.673 1073.44 830.141 1071.28 828.237 1070.19 825.96 1070.19 823.698 1070.19 821.908 1071.15 820.577 1073.07 818.887 1075.52 818.043 1080.03 818.043 1086.62Z" fill-rule="evenodd"/><path d="M844.02 1086.62C844.02 1081.88 844.493 1078.06 845.466 1075.16 846.426 1072.28 847.872 1070.06 849.79 1068.47 851.694 1066.92 854.1 1066.12 857.021 1066.11 859.14 1066.12 861.015 1066.56 862.647 1067.42 864.251 1068.29 865.582 1069.54 866.642 1071.17 867.687 1072.81 868.517 1074.8 869.119 1077.13 869.706 1079.48 870.007 1082.64 870.021 1086.62 870.007 1091.33 869.519 1095.13 868.575 1098.03 867.601 1100.93 866.17 1103.18 864.265 1104.75 862.347 1106.33 859.927 1107.11 857.021 1107.11 853.155 1107.11 850.134 1105.73 847.958 1102.94 845.323 1099.62 844.02 1094.17 844.02 1086.62ZM849.046 1086.62C849.046 1093.22 849.805 1097.61 851.336 1099.77 852.869 1101.96 854.759 1103.05 857.021 1103.05 859.254 1103.05 861.144 1101.95 862.676 1099.76 864.208 1097.57 864.981 1093.19 864.981 1086.62 864.981 1080.02 864.208 1075.64 862.676 1073.44 861.144 1071.28 859.24 1070.19 856.963 1070.19 854.701 1070.19 852.912 1071.15 851.58 1073.07 849.891 1075.52 849.046 1080.03 849.046 1086.62Z" fill-rule="evenodd"/><path d="M776.305 505.054 771.5 505.429C771.063 503.513 770.455 502.115 769.678 501.221 768.363 499.823 766.753 499.117 764.845 499.103 763.291 499.117 761.934 499.549 760.79 500.429 759.25 501.552 758.048 503.21 757.186 505.386 756.296 507.562 755.844 510.661 755.816 514.667 756.974 512.865 758.388 511.511 760.083 510.631 761.75 509.767 763.517 509.334 765.382 509.32 768.59 509.334 771.331 510.545 773.606 512.952 775.867 515.387 777.011 518.514 777.011 522.334 777.011 524.855 776.474 527.19 775.401 529.352 774.326 531.514 772.857 533.171 771.006 534.324 769.141 535.477 767.035 536.053 764.676 536.053 760.648 536.053 757.356 534.554 754.827 531.528 752.269 528.516 750.997 523.53 751.012 516.583 750.997 508.83 752.41 503.181 755.237 499.65 757.681 496.595 760.987 495.068 765.142 495.053 768.222 495.068 770.751 495.961 772.744 497.719 774.708 499.506 775.895 501.942 776.305 505.054ZM756.579 522.348C756.579 524.048 756.932 525.677 757.638 527.233 758.345 528.79 759.334 529.971 760.606 530.778 761.878 531.586 763.206 531.989 764.605 531.989 766.626 531.989 768.378 531.153 769.861 529.482 771.317 527.81 772.052 525.533 772.066 522.622 772.052 519.869 771.331 517.679 769.889 516.079 768.434 514.479 766.597 513.687 764.407 513.672 762.217 513.687 760.366 514.479 758.854 516.079 757.328 517.679 756.579 519.768 756.579 522.348Z" fill-rule="evenodd"/><path d="M782.014 515.56C782.014 510.819 782.487 507 783.461 504.103 784.42 501.221 785.866 499.002 787.784 497.416 789.689 495.86 792.094 495.068 795.015 495.053 797.134 495.068 799.009 495.5 800.642 496.365 802.245 497.229 803.576 498.483 804.636 500.111 805.681 501.754 806.511 503.743 807.113 506.078 807.7 508.427 808.001 511.583 808.015 515.56 808.001 520.273 807.514 524.077 806.569 526.974 805.595 529.87 804.164 532.119 802.259 533.689 800.341 535.275 797.921 536.053 795.015 536.053 791.149 536.053 788.128 534.669 785.952 531.888 783.318 528.559 782.014 523.112 782.014 515.56ZM787.04 515.56C787.04 522.16 787.799 526.556 789.331 528.718 790.863 530.908 792.753 531.989 795.015 531.989 797.248 531.989 799.138 530.894 800.67 528.703 802.202 526.513 802.975 522.132 802.975 515.56 802.975 508.96 802.202 504.579 800.67 502.388 799.138 500.227 797.234 499.132 794.958 499.132 792.695 499.132 790.906 500.097 789.574 502.014 787.885 504.464 787.04 508.974 787.04 515.56Z" fill-rule="evenodd"/><path d="M813.018 515.56C813.018 510.819 813.49 507 814.464 504.103 815.423 501.221 816.869 499.002 818.787 497.416 820.692 495.86 823.097 495.068 826.018 495.053 828.137 495.068 830.012 495.5 831.644 496.365 833.248 497.229 834.579 498.483 835.639 500.111 836.684 501.754 837.514 503.743 838.116 506.078 838.703 508.427 839.003 511.583 839.018 515.56 839.003 520.273 838.517 524.077 837.572 526.974 836.598 529.87 835.166 532.119 833.262 533.689 831.344 535.275 828.924 536.053 826.018 536.053 822.152 536.053 819.131 534.669 816.955 531.888 814.32 528.559 813.018 523.112 813.018 515.56ZM818.043 515.56C818.043 522.16 818.802 526.556 820.334 528.718 821.865 530.908 823.755 531.989 826.018 531.989 828.251 531.989 830.141 530.894 831.673 528.703 833.205 526.513 833.978 522.132 833.978 515.56 833.978 508.96 833.205 504.579 831.673 502.388 830.141 500.227 828.237 499.132 825.96 499.132 823.698 499.132 821.908 500.097 820.577 502.014 818.887 504.464 818.043 508.974 818.043 515.56Z" fill-rule="evenodd"/><path d="M844.02 515.56C844.02 510.819 844.493 507 845.466 504.103 846.426 501.221 847.872 499.002 849.79 497.416 851.694 495.86 854.1 495.068 857.021 495.053 859.14 495.068 861.015 495.5 862.647 496.365 864.251 497.229 865.582 498.483 866.642 500.111 867.687 501.754 868.517 503.743 869.119 506.078 869.706 508.427 870.007 511.583 870.021 515.56 870.007 520.273 869.519 524.077 868.575 526.974 867.601 529.87 866.17 532.119 864.265 533.689 862.347 535.275 859.927 536.053 857.021 536.053 853.155 536.053 850.134 534.669 847.958 531.888 845.323 528.559 844.02 523.112 844.02 515.56ZM849.046 515.56C849.046 522.16 849.805 526.556 851.336 528.718 852.869 530.908 854.759 531.989 857.021 531.989 859.254 531.989 861.144 530.894 862.676 528.703 864.208 526.513 864.981 522.132 864.981 515.56 864.981 508.96 864.208 504.579 862.676 502.388 861.144 500.227 859.24 499.132 856.963 499.132 854.701 499.132 852.912 500.097 851.58 502.014 849.891 504.464 849.046 508.974 849.046 515.56Z" fill-rule="evenodd"/><path d="M1450.08 2343.53 1450.08 2348.23 1424.08 2348.23C1424.04 2347.06 1424.22 2345.93 1424.65 2344.83 1425.3 2343.04 1426.36 2341.28 1427.82 2339.54 1429.26 2337.82 1431.37 2335.8 1434.14 2333.5 1438.4 2329.97 1441.29 2327.17 1442.81 2325.08 1444.3 2323.02 1445.05 2321.04 1445.06 2319.19 1445.05 2317.25 1444.37 2315.62 1443 2314.28 1441.63 2312.95 1439.84 2312.28 1437.65 2312.28 1435.31 2312.28 1433.46 2312.99 1432.07 2314.41 1430.68 2315.82 1429.97 2317.78 1429.96 2320.27L1424.99 2319.76C1425.33 2316.02 1426.61 2313.16 1428.83 2311.19 1431.04 2309.23 1434.02 2308.25 1437.76 2308.23 1441.53 2308.25 1444.51 2309.3 1446.72 2311.42 1448.9 2313.54 1450.01 2316.17 1450.02 2319.29 1450.01 2320.9 1449.68 2322.47 1449.05 2324 1448.4 2325.55 1447.34 2327.17 1445.84 2328.87 1444.34 2330.57 1441.86 2332.9 1438.4 2335.86 1435.51 2338.33 1433.64 2340.01 1432.82 2340.88 1431.99 2341.77 1431.31 2342.65 1430.79 2343.53Z" fill-rule="evenodd"/><path d="M1458.09 2348.25 1458.09 2342.25 1464.09 2342.25 1464.09 2348.25Z" fill-rule="evenodd"/><path d="M1471.08 2338.1 1476.33 2337.67C1476.7 2340.17 1477.61 2342.05 1479.03 2343.31 1480.44 2344.57 1482.16 2345.2 1484.16 2345.2 1486.56 2345.2 1488.59 2344.31 1490.27 2342.53 1491.93 2340.76 1492.76 2338.41 1492.77 2335.46 1492.76 2332.69 1491.96 2330.48 1490.38 2328.87 1488.77 2327.25 1486.68 2326.43 1484.09 2326.43 1482.46 2326.43 1481 2326.79 1479.71 2327.51 1478.4 2328.22 1477.39 2329.15 1476.66 2330.3L1471.96 2329.7 1475.91 2309.23 1496.17 2309.23 1496.17 2313.9 1479.92 2313.9 1477.72 2324.62C1480.15 2322.96 1482.71 2322.13 1485.42 2322.11 1488.96 2322.13 1491.96 2323.33 1494.41 2325.73 1496.84 2328.15 1498.07 2331.26 1498.08 2335.03 1498.07 2338.66 1497 2341.76 1494.87 2344.38 1492.25 2347.61 1488.68 2349.23 1484.16 2349.23 1480.44 2349.23 1477.42 2348.21 1475.09 2346.18 1472.74 2344.15 1471.41 2341.46 1471.08 2338.1Z" fill-rule="evenodd"/><path d="M2139.15 2338.1 2144.2 2337.67C2144.55 2340.17 2145.43 2342.05 2146.79 2343.31 2148.16 2344.57 2149.81 2345.2 2151.74 2345.2 2154.05 2345.2 2156 2344.31 2157.62 2342.53 2159.22 2340.76 2160.02 2338.41 2160.03 2335.46 2160.02 2332.69 2159.24 2330.48 2157.72 2328.87 2156.17 2327.25 2154.16 2326.43 2151.67 2326.43 2150.1 2326.43 2148.69 2326.79 2147.46 2327.51 2146.19 2328.22 2145.22 2329.15 2144.51 2330.3L2139.99 2329.7 2143.79 2309.23 2163.3 2309.23 2163.3 2313.9 2147.65 2313.9 2145.54 2324.62C2147.88 2322.96 2150.34 2322.13 2152.95 2322.11 2156.36 2322.13 2159.24 2323.33 2161.61 2325.73 2163.95 2328.15 2165.13 2331.26 2165.15 2335.03 2165.13 2338.66 2164.1 2341.76 2162.05 2344.38 2159.53 2347.61 2156.09 2349.23 2151.74 2349.23 2148.16 2349.23 2145.24 2348.21 2143.01 2346.18 2140.74 2344.15 2139.46 2341.46 2139.15 2338.1Z" fill-rule="evenodd"/><path d="M2173.14 2348.25 2173.14 2342.25 2178.14 2342.25 2178.14 2348.25Z" fill-rule="evenodd"/><path d="M2185.15 2328.74C2185.15 2324 2185.62 2320.18 2186.6 2317.28 2187.56 2314.4 2189 2312.18 2190.92 2310.6 2192.83 2309.04 2195.23 2308.25 2198.15 2308.23 2200.27 2308.25 2202.15 2308.68 2203.78 2309.54 2205.38 2310.41 2206.71 2311.66 2207.77 2313.29 2208.82 2314.93 2209.65 2316.92 2210.25 2319.26 2210.84 2321.61 2211.14 2324.76 2211.15 2328.74 2211.14 2333.45 2210.65 2337.26 2209.71 2340.15 2208.73 2343.05 2207.3 2345.3 2205.4 2346.87 2203.48 2348.45 2201.06 2349.23 2198.15 2349.23 2194.29 2349.23 2191.27 2347.85 2189.09 2345.07 2186.46 2341.74 2185.15 2336.29 2185.15 2328.74ZM2190.18 2328.74C2190.18 2335.34 2190.94 2339.74 2192.47 2341.9 2194 2344.09 2195.89 2345.17 2198.15 2345.17 2200.39 2345.17 2202.28 2344.07 2203.81 2341.88 2205.34 2339.69 2206.11 2335.31 2206.11 2328.74 2206.11 2322.14 2205.34 2317.76 2203.81 2315.57 2202.28 2313.41 2200.37 2312.31 2198.09 2312.31 2195.83 2312.31 2194.04 2313.28 2192.71 2315.19 2191.02 2317.64 2190.18 2322.15 2190.18 2328.74Z" fill-rule="evenodd"/><path d="M2854.22 2313.88 2854.22 2309.23 2880.22 2309.23 2880.22 2313C2877.65 2315.7 2875.12 2319.25 2872.62 2323.67 2870.1 2328.11 2868.16 2332.68 2866.79 2337.36 2865.81 2340.68 2865.18 2344.3 2864.91 2348.23L2859.84 2348.23C2859.89 2345.12 2860.51 2341.38 2861.7 2336.96 2862.89 2332.57 2864.59 2328.31 2866.81 2324.22 2869.02 2320.14 2871.38 2316.69 2873.89 2313.88Z" fill-rule="evenodd"/><path d="M2887.24 2348.25 2887.24 2342.25 2893.24 2342.25 2893.24 2348.25Z" fill-rule="evenodd"/><path d="M2900.22 2338.1 2905.28 2337.67C2905.63 2340.17 2906.5 2342.05 2907.87 2343.31 2909.23 2344.57 2910.88 2345.2 2912.81 2345.2 2915.12 2345.2 2917.08 2344.31 2918.7 2342.53 2920.29 2340.76 2921.09 2338.41 2921.11 2335.46 2921.09 2332.69 2920.32 2330.48 2918.8 2328.87 2917.25 2327.25 2915.23 2326.43 2912.74 2326.43 2911.18 2326.43 2909.77 2326.79 2908.53 2327.51 2907.26 2328.22 2906.29 2329.15 2905.59 2330.3L2901.06 2329.7 2904.87 2309.23 2924.37 2309.23 2924.37 2313.9 2908.73 2313.9 2906.61 2324.62C2908.95 2322.96 2911.42 2322.13 2914.02 2322.11 2917.43 2322.13 2920.32 2323.33 2922.68 2325.73 2925.02 2328.15 2926.21 2331.26 2926.22 2335.03 2926.21 2338.66 2925.18 2341.76 2923.12 2344.38 2920.6 2347.61 2917.16 2349.23 2912.81 2349.23 2909.23 2349.23 2906.32 2348.21 2904.08 2346.18 2901.81 2344.15 2900.53 2341.46 2900.22 2338.1Z" fill-rule="evenodd"/><path d="M3571.29 2348.23 3566.29 2348.23 3566.29 2317.07C3565.08 2318.2 3563.5 2319.31 3561.54 2320.43 3559.58 2321.56 3557.83 2322.4 3556.29 2322.96L3556.29 2318.23C3559.09 2316.95 3561.53 2315.4 3563.62 2313.57 3565.71 2311.73 3567.18 2309.96 3568.06 2308.23L3571.29 2308.23Z" fill-rule="evenodd"/><path d="M3583.29 2328.74C3583.29 2324 3583.76 2320.18 3584.74 2317.28 3585.7 2314.4 3587.14 2312.18 3589.06 2310.6 3590.96 2309.04 3593.37 2308.25 3596.29 2308.23 3598.41 2308.25 3600.28 2308.68 3601.92 2309.54 3603.52 2310.41 3604.85 2311.66 3605.91 2313.29 3606.96 2314.93 3607.79 2316.92 3608.39 2319.26 3608.98 2321.61 3609.28 2324.76 3609.29 2328.74 3609.28 2333.45 3608.79 2337.26 3607.84 2340.15 3606.87 2343.05 3605.44 2345.3 3603.53 2346.87 3601.62 2348.45 3599.2 2349.23 3596.29 2349.23 3592.42 2349.23 3589.4 2347.85 3587.23 2345.07 3584.59 2341.74 3583.29 2336.29 3583.29 2328.74ZM3588.32 2328.74C3588.32 2335.34 3589.07 2339.74 3590.61 2341.9 3592.14 2344.09 3594.03 2345.17 3596.29 2345.17 3598.52 2345.17 3600.41 2344.07 3601.95 2341.88 3603.48 2339.69 3604.25 2335.31 3604.25 2328.74 3604.25 2322.14 3603.48 2317.76 3601.95 2315.57 3600.41 2313.41 3598.51 2312.31 3596.23 2312.31 3593.97 2312.31 3592.18 2313.28 3590.85 2315.19 3589.16 2317.64 3588.32 2322.15 3588.32 2328.74Z" fill-rule="evenodd"/><path d="M3617.32 2348.25 3617.32 2342.25 3623.32 2342.25 3623.32 2348.25Z" fill-rule="evenodd"/><path d="M3630.29 2328.74C3630.29 2324 3630.77 2320.18 3631.74 2317.28 3632.7 2314.4 3634.15 2312.18 3636.06 2310.6 3637.97 2309.04 3640.37 2308.25 3643.29 2308.23 3645.41 2308.25 3647.29 2308.68 3648.92 2309.54 3650.52 2310.41 3651.86 2311.66 3652.92 2313.29 3653.96 2314.93 3654.79 2316.92 3655.39 2319.26 3655.98 2321.61 3656.28 2324.76 3656.29 2328.74 3656.28 2333.45 3655.79 2337.26 3654.85 2340.15 3653.88 2343.05 3652.44 2345.3 3650.54 2346.87 3648.62 2348.45 3646.2 2349.23 3643.29 2349.23 3639.43 2349.23 3636.41 2347.85 3634.23 2345.07 3631.6 2341.74 3630.29 2336.29 3630.29 2328.74ZM3635.32 2328.74C3635.32 2335.34 3636.08 2339.74 3637.61 2341.9 3639.14 2344.09 3641.03 2345.17 3643.29 2345.17 3645.53 2345.17 3647.42 2344.07 3648.95 2341.88 3650.48 2339.69 3651.26 2335.31 3651.26 2328.74 3651.26 2322.14 3650.48 2317.76 3648.95 2315.57 3647.42 2313.41 3645.51 2312.31 3643.24 2312.31 3640.98 2312.31 3639.19 2313.28 3637.85 2315.19 3636.16 2317.64 3635.32 2322.15 3635.32 2328.74Z" fill-rule="evenodd"/><path d="M1975.13 2426.24 1975.13 2376.24 1981.85 2376.24 2007.85 2415.5 2007.85 2376.24 2014.13 2376.24 2014.13 2426.24 2007.41 2426.24 1981.41 2386.95 1981.41 2426.24Z" fill-rule="evenodd"/><path d="M2048.72 2426.42 2048.72 2421.11C2045.92 2425.2 2042.14 2427.24 2037.36 2427.24 2035.25 2427.24 2033.28 2426.84 2031.45 2426.02 2029.62 2425.2 2028.26 2424.17 2027.38 2422.93 2026.48 2421.7 2025.86 2420.19 2025.5 2418.39 2025.25 2417.2 2025.12 2415.27 2025.14 2412.65L2025.14 2390.24 2031.21 2390.24 2031.21 2410.31C2031.19 2413.52 2031.32 2415.68 2031.57 2416.78 2031.94 2418.39 2032.74 2419.66 2033.98 2420.58 2035.2 2421.51 2036.74 2421.97 2038.58 2421.96 2040.38 2421.97 2042.08 2421.5 2043.68 2420.55 2045.27 2419.62 2046.41 2418.33 2047.07 2416.69 2047.73 2415.07 2048.05 2412.72 2048.07 2409.62L2048.07 2390.24 2054.14 2390.24 2054.14 2426.42Z" fill-rule="evenodd"/><path d="M2064.14 2426.24 2064.14 2390.06 2069.5 2390.06 2069.5 2395.14C2070.61 2393.37 2072.09 2391.94 2073.94 2390.86 2075.77 2389.78 2077.88 2389.25 2080.25 2389.24 2082.86 2389.25 2085.01 2389.81 2086.7 2390.92 2088.37 2392.04 2089.55 2393.59 2090.25 2395.57 2093.05 2391.36 2096.7 2389.25 2101.19 2389.24 2104.69 2389.25 2107.39 2390.24 2109.3 2392.22 2111.18 2394.22 2112.14 2397.27 2112.14 2401.41L2112.14 2426.24 2106.17 2426.24 2106.17 2403.44C2106.15 2401 2105.96 2399.24 2105.58 2398.15 2105.18 2397.09 2104.48 2396.21 2103.47 2395.54 2102.44 2394.89 2101.24 2394.56 2099.86 2394.55 2097.36 2394.56 2095.29 2395.41 2093.65 2397.09 2092.01 2398.79 2091.19 2401.51 2091.19 2405.22L2091.19 2426.24 2085.18 2426.24 2085.18 2402.73C2085.17 2400.01 2084.67 2397.98 2083.71 2396.6 2082.72 2395.25 2081.12 2394.56 2078.92 2394.55 2077.2 2394.56 2075.64 2395.02 2074.22 2395.91 2072.78 2396.83 2071.74 2398.15 2071.1 2399.9 2070.44 2401.65 2070.12 2404.17 2070.14 2407.46L2070.14 2426.24Z" fill-rule="evenodd"/><path d="M2127.77 2426.42 2122.14 2426.42 2122.14 2376.24 2128.21 2376.24 2128.21 2394.14C2130.74 2390.9 2134.02 2389.27 2138 2389.25 2140.19 2389.27 2142.26 2389.71 2144.23 2390.61 2146.19 2391.52 2147.8 2392.78 2149.08 2394.4 2150.34 2396.04 2151.35 2398 2152.07 2400.31 2152.78 2402.61 2153.13 2405.08 2153.14 2407.7 2153.13 2413.92 2151.61 2418.74 2148.6 2422.14 2145.55 2425.54 2141.92 2427.24 2137.7 2427.24 2133.48 2427.24 2130.16 2425.45 2127.77 2421.87ZM2127.7 2407.97C2127.68 2412.35 2128.28 2415.5 2129.46 2417.41 2131.35 2420.6 2133.93 2422.18 2137.19 2422.18 2139.83 2422.18 2142.11 2421.01 2144.05 2418.68 2145.98 2416.35 2146.94 2412.86 2146.95 2408.2 2146.94 2403.46 2146.02 2399.96 2144.18 2397.7 2142.32 2395.45 2140.08 2394.33 2137.46 2394.31 2134.81 2394.33 2132.52 2395.49 2130.59 2397.83 2128.65 2400.18 2127.68 2403.56 2127.7 2407.97Z" fill-rule="evenodd"/><path d="M2185.49 2414.71 2191.95 2415.49C2190.91 2419.24 2189.02 2422.12 2186.27 2424.17 2183.51 2426.22 2180 2427.24 2175.73 2427.24 2170.32 2427.24 2166.04 2425.61 2162.89 2422.32 2159.72 2419.07 2158.14 2414.47 2158.15 2408.54 2158.14 2402.45 2159.73 2397.7 2162.95 2394.31 2166.14 2390.94 2170.29 2389.25 2175.38 2389.24 2180.31 2389.25 2184.33 2390.91 2187.46 2394.21 2190.57 2397.53 2192.14 2402.17 2192.15 2408.17 2192.14 2408.54 2192.12 2409.09 2192.12 2409.81L2164.62 2409.81C2164.84 2413.82 2165.99 2416.89 2168.05 2418.99 2170.1 2421.13 2172.66 2422.18 2175.76 2422.18 2178.04 2422.18 2180 2421.59 2181.62 2420.39 2183.25 2419.21 2184.53 2417.32 2185.49 2414.71ZM2164.97 2404.75 2185.56 2404.75C2185.28 2401.7 2184.49 2399.4 2183.19 2397.86 2181.2 2395.5 2178.61 2394.31 2175.45 2394.3 2172.56 2394.31 2170.14 2395.25 2168.2 2397.14 2166.24 2399.04 2165.16 2401.58 2164.97 2404.75Z" fill-rule="evenodd"/><path d="M2199.16 2426.24 2199.16 2390.06 2204.78 2390.06 2204.78 2395.54C2206.19 2392.98 2207.52 2391.29 2208.73 2390.47 2209.95 2389.66 2211.27 2389.25 2212.75 2389.24 2214.84 2389.25 2216.98 2389.9 2219.16 2391.2L2217.01 2396.9C2215.48 2396.03 2213.95 2395.58 2212.44 2395.57 2211.05 2395.58 2209.83 2395.98 2208.75 2396.79 2207.65 2397.6 2206.88 2398.72 2206.44 2400.14 2205.73 2402.34 2205.38 2404.72 2205.39 2407.3L2205.39 2426.24Z" fill-rule="evenodd"/><path d="M2239.16 2408.24C2239.16 2401.51 2241.01 2396.52 2244.76 2393.28 2247.86 2390.6 2251.68 2389.25 2256.17 2389.24 2261.14 2389.25 2265.22 2390.88 2268.4 2394.16 2271.56 2397.43 2273.14 2401.96 2273.16 2407.72 2273.14 2412.41 2272.44 2416.08 2271.04 2418.76 2269.63 2421.44 2267.6 2423.54 2264.93 2425.02 2262.25 2426.51 2259.33 2427.24 2256.17 2427.24 2251.09 2427.24 2246.97 2425.61 2243.85 2422.35 2240.71 2419.1 2239.16 2414.4 2239.16 2408.24ZM2245.47 2408.24C2245.46 2412.9 2246.47 2416.39 2248.51 2418.71 2250.53 2421.03 2253.09 2422.18 2256.17 2422.18 2259.22 2422.18 2261.75 2421.03 2263.78 2418.69 2265.81 2416.37 2266.83 2412.81 2266.83 2408.04 2266.83 2403.54 2265.81 2400.14 2263.76 2397.82 2261.72 2395.51 2259.19 2394.36 2256.17 2394.34 2253.09 2394.36 2250.53 2395.51 2248.51 2397.8 2246.47 2400.11 2245.46 2403.58 2245.47 2408.24Z" fill-rule="evenodd"/><path d="M2281.81 2426.24 2281.81 2394.7 2276.17 2394.7 2276.17 2389.92 2281.81 2389.92 2281.81 2386.04C2281.81 2383.61 2282.03 2381.79 2282.48 2380.61 2283.09 2379.03 2284.16 2377.75 2285.71 2376.74 2287.25 2375.76 2289.41 2375.25 2292.22 2375.24 2294.01 2375.25 2295.99 2375.46 2298.17 2375.86L2297.21 2381.22C2295.89 2381 2294.63 2380.9 2293.46 2380.89 2291.5 2380.9 2290.13 2381.29 2289.34 2382.08 2288.53 2382.89 2288.13 2384.39 2288.15 2386.56L2288.15 2389.92 2295.48 2389.92 2295.48 2394.7 2288.15 2394.7 2288.15 2426.24Z" fill-rule="evenodd"/><path d="M2343.04 2413.1 2349.17 2413.89C2348.48 2418.07 2346.78 2421.33 2344.03 2423.69 2341.26 2426.06 2337.87 2427.24 2333.87 2427.24 2328.83 2427.24 2324.8 2425.63 2321.74 2422.37 2318.68 2419.12 2317.15 2414.45 2317.17 2408.37 2317.15 2404.46 2317.81 2401.03 2319.13 2398.08 2320.45 2395.14 2322.44 2392.93 2325.14 2391.45 2327.82 2389.99 2330.74 2389.25 2333.92 2389.24 2337.88 2389.25 2341.14 2390.25 2343.69 2392.24 2346.23 2394.24 2347.86 2397.08 2348.57 2400.74L2342.53 2401.67C2341.94 2399.23 2340.92 2397.4 2339.47 2396.16 2337.98 2394.93 2336.22 2394.31 2334.15 2394.3 2331.01 2394.31 2328.46 2395.42 2326.5 2397.64 2324.54 2399.88 2323.55 2403.4 2323.56 2408.2 2323.55 2413.1 2324.49 2416.66 2326.4 2418.86 2328.28 2421.08 2330.76 2422.18 2333.8 2422.18 2336.25 2422.18 2338.29 2421.44 2339.92 2419.96 2341.55 2418.48 2342.58 2416.18 2343.04 2413.1Z" fill-rule="evenodd"/><path d="M2354.17 2426.24 2354.17 2376.24 2360.17 2376.24 2360.17 2426.24Z" fill-rule="evenodd"/><path d="M2393.57 2426.42 2393.57 2421.11C2390.68 2425.2 2386.76 2427.24 2381.82 2427.24 2379.64 2427.24 2377.6 2426.84 2375.7 2426.02 2373.81 2425.2 2372.4 2424.17 2371.49 2422.93 2370.57 2421.7 2369.92 2420.19 2369.56 2418.39 2369.29 2417.2 2369.16 2415.27 2369.18 2412.65L2369.18 2390.24 2375.45 2390.24 2375.45 2410.31C2375.44 2413.52 2375.57 2415.68 2375.84 2416.78 2376.22 2418.39 2377.04 2419.66 2378.33 2420.58 2379.59 2421.51 2381.18 2421.97 2383.08 2421.96 2384.95 2421.97 2386.71 2421.5 2388.36 2420.55 2390.01 2419.62 2391.18 2418.33 2391.87 2416.69 2392.54 2415.07 2392.88 2412.72 2392.9 2409.62L2392.9 2390.24 2399.18 2390.24 2399.18 2426.42Z" fill-rule="evenodd"/><path d="M2406.17 2415.56 2412.22 2414.61C2412.55 2417.06 2413.5 2418.94 2415.06 2420.23 2416.6 2421.53 2418.78 2422.18 2421.59 2422.18 2424.38 2422.18 2426.48 2421.6 2427.84 2420.45 2429.2 2419.3 2429.87 2417.94 2429.89 2416.39 2429.87 2415 2429.27 2413.91 2428.08 2413.1 2427.22 2412.55 2425.14 2411.86 2421.82 2411.01 2417.32 2409.87 2414.2 2408.89 2412.48 2408.05 2410.73 2407.23 2409.41 2406.08 2408.52 2404.59 2407.62 2403.14 2407.18 2401.51 2407.19 2399.72 2407.18 2398.11 2407.55 2396.61 2408.29 2395.22 2409.03 2393.85 2410.03 2392.7 2411.3 2391.76 2412.25 2391.07 2413.55 2390.48 2415.2 2389.98 2416.83 2389.5 2418.6 2389.25 2420.5 2389.24 2423.32 2389.25 2425.8 2389.66 2427.95 2390.48 2430.09 2391.3 2431.68 2392.41 2432.71 2393.81 2433.72 2395.22 2434.43 2397.1 2434.81 2399.43L2428.83 2400.27C2428.55 2398.41 2427.76 2396.94 2426.46 2395.89 2425.16 2394.83 2423.31 2394.31 2420.93 2394.3 2418.11 2394.31 2416.1 2394.78 2414.91 2395.71 2413.7 2396.65 2413.09 2397.75 2413.11 2399 2413.09 2399.81 2413.34 2400.53 2413.85 2401.15 2414.34 2401.83 2415.13 2402.37 2416.2 2402.79 2416.8 2403.04 2418.61 2403.55 2421.62 2404.36 2425.95 2405.54 2428.97 2406.51 2430.69 2407.23 2432.39 2407.98 2433.74 2409.05 2434.71 2410.46 2435.69 2411.87 2436.18 2413.63 2436.18 2415.74 2436.18 2417.8 2435.57 2419.74 2434.38 2421.55 2433.2 2423.36 2431.48 2424.76 2429.24 2425.76 2426.98 2426.75 2424.44 2427.24 2421.62 2427.24 2416.91 2427.24 2413.32 2426.26 2410.87 2424.3 2408.41 2422.34 2406.85 2419.43 2406.17 2415.56Z" fill-rule="evenodd"/><path d="M2456.32 2421.2 2457.17 2426.69C2455.49 2427.07 2454.01 2427.24 2452.71 2427.24 2450.55 2427.24 2448.88 2426.89 2447.72 2426.18 2446.53 2425.47 2445.7 2424.52 2445.22 2423.36 2444.73 2422.19 2444.5 2419.75 2444.5 2416.01L2444.5 2394.89 2440.17 2394.89 2440.17 2390.06 2444.5 2390.06 2444.5 2380.97 2450.37 2377.24 2450.37 2390.06 2456.32 2390.06 2456.32 2394.89 2450.37 2394.89 2450.37 2416.36C2450.36 2418.15 2450.47 2419.28 2450.68 2419.78 2450.88 2420.29 2451.21 2420.69 2451.7 2420.99 2452.15 2421.29 2452.83 2421.44 2453.72 2421.44 2454.37 2421.44 2455.24 2421.36 2456.32 2421.2Z" fill-rule="evenodd"/><path d="M2487.52 2414.71 2493.98 2415.49C2492.94 2419.24 2491.05 2422.12 2488.3 2424.17 2485.54 2426.22 2482.03 2427.24 2477.76 2427.24 2472.35 2427.24 2468.07 2425.61 2464.92 2422.32 2461.75 2419.07 2460.17 2414.47 2460.18 2408.54 2460.17 2402.45 2461.76 2397.7 2464.98 2394.31 2468.17 2390.94 2472.32 2389.25 2477.41 2389.24 2482.34 2389.25 2486.36 2390.91 2489.49 2394.21 2492.6 2397.53 2494.17 2402.17 2494.18 2408.17 2494.17 2408.54 2494.15 2409.09 2494.15 2409.81L2466.65 2409.81C2466.87 2413.82 2468.02 2416.89 2470.08 2418.99 2472.13 2421.13 2474.69 2422.18 2477.79 2422.18 2480.07 2422.18 2482.03 2421.59 2483.65 2420.39 2485.28 2419.21 2486.56 2417.32 2487.52 2414.71ZM2467 2404.75 2487.59 2404.75C2487.31 2401.7 2486.52 2399.4 2485.22 2397.86 2483.23 2395.5 2480.64 2394.31 2477.48 2394.3 2474.59 2394.31 2472.17 2395.25 2470.23 2397.14 2468.27 2399.04 2467.19 2401.58 2467 2404.75Z" fill-rule="evenodd"/><path d="M2501.19 2426.24 2501.19 2390.06 2506.81 2390.06 2506.81 2395.54C2508.22 2392.98 2509.55 2391.29 2510.76 2390.47 2511.98 2389.66 2513.3 2389.25 2514.78 2389.24 2516.87 2389.25 2519.01 2389.9 2521.19 2391.2L2519.04 2396.9C2517.51 2396.03 2515.98 2395.58 2514.47 2395.57 2513.09 2395.58 2511.86 2395.98 2510.78 2396.79 2509.68 2397.6 2508.91 2398.72 2508.47 2400.14 2507.76 2402.34 2507.41 2404.72 2507.42 2407.3L2507.42 2426.24Z" fill-rule="evenodd"/><path d="M2522.19 2415.56 2528.23 2414.61C2528.56 2417.06 2529.51 2418.94 2531.07 2420.23 2532.62 2421.53 2534.79 2422.18 2537.6 2422.18 2540.39 2422.18 2542.49 2421.6 2543.85 2420.45 2545.21 2419.3 2545.88 2417.94 2545.9 2416.39 2545.88 2415 2545.28 2413.91 2544.09 2413.1 2543.23 2412.55 2541.15 2411.86 2537.83 2411.01 2533.33 2409.87 2530.21 2408.89 2528.49 2408.05 2526.74 2407.23 2525.42 2406.08 2524.54 2404.59 2523.63 2403.14 2523.19 2401.51 2523.2 2399.72 2523.19 2398.11 2523.56 2396.61 2524.31 2395.22 2525.04 2393.85 2526.04 2392.7 2527.31 2391.76 2528.26 2391.07 2529.56 2390.48 2531.21 2389.98 2532.84 2389.5 2534.61 2389.25 2536.51 2389.24 2539.33 2389.25 2541.81 2389.66 2543.96 2390.48 2546.1 2391.3 2547.69 2392.41 2548.72 2393.81 2549.74 2395.22 2550.44 2397.1 2550.82 2399.43L2544.84 2400.27C2544.56 2398.41 2543.78 2396.94 2542.47 2395.89 2541.17 2394.83 2539.32 2394.31 2536.94 2394.3 2534.12 2394.31 2532.11 2394.78 2530.93 2395.71 2529.71 2396.65 2529.11 2397.75 2529.12 2399 2529.11 2399.81 2529.35 2400.53 2529.86 2401.15 2530.35 2401.83 2531.14 2402.37 2532.21 2402.79 2532.82 2403.04 2534.62 2403.55 2537.63 2404.36 2541.96 2405.54 2544.98 2406.51 2546.7 2407.23 2548.4 2407.98 2549.75 2409.05 2550.72 2410.46 2551.7 2411.87 2552.19 2413.63 2552.19 2415.74 2552.19 2417.8 2551.58 2419.74 2550.4 2421.55 2549.21 2423.36 2547.49 2424.76 2545.25 2425.76 2542.99 2426.75 2540.45 2427.24 2537.63 2427.24 2532.92 2427.24 2529.33 2426.26 2526.89 2424.3 2524.42 2422.34 2522.86 2419.43 2522.19 2415.56Z" fill-rule="evenodd"/><path d="M2590.67 2441.24C2587.17 2436.92 2584.21 2431.89 2581.82 2426.13 2579.39 2420.36 2578.2 2414.39 2578.2 2408.2 2578.2 2402.77 2579.1 2397.55 2580.9 2392.55 2583 2386.76 2586.25 2381 2590.67 2375.24L2595.2 2375.24C2592.36 2380.01 2590.48 2383.41 2589.58 2385.43 2588.13 2388.6 2587.01 2391.9 2586.21 2395.32 2585.19 2399.62 2584.69 2403.93 2584.7 2408.23 2584.69 2419.27 2588.19 2430.25 2595.2 2441.24Z" fill-rule="evenodd"/><path d="M2602.19 2426.24 2602.19 2376.24 2608.76 2376.24 2608.76 2401.04 2633.38 2376.24 2642.28 2376.24 2621.47 2396.5 2643.19 2426.24 2634.53 2426.24 2616.87 2400.94 2608.76 2408.92 2608.76 2426.24Z" fill-rule="evenodd"/><path d="M2652.46 2441.24 2648.19 2441.24C2654.79 2430.25 2658.08 2419.27 2658.08 2408.23 2658.08 2403.95 2657.6 2399.67 2656.65 2395.42 2655.9 2392 2654.86 2388.7 2653.52 2385.53 2652.64 2383.48 2650.88 2380.06 2648.19 2375.24L2652.46 2375.24C2656.6 2381 2659.66 2386.76 2661.65 2392.55 2663.33 2397.55 2664.18 2402.77 2664.19 2408.2 2664.18 2414.39 2663.04 2420.36 2660.77 2426.13 2658.47 2431.89 2655.71 2436.92 2652.46 2441.24Z" fill-rule="evenodd"/><path d="M717.008 1712.96 667.008 1726.17 667.008 1719.41 699.791 1711.83C703.238 1711.03 706.641 1710.33 710.016 1709.73 704.688 1708.47 701.615 1707.73 700.782 1707.49L667.008 1698.02 667.008 1690.07 692.325 1682.94C698.599 1681.17 704.501 1679.87 710.016 1679.07 706.871 1678.44 703.252 1677.62 699.145 1676.59L667.008 1668.79 667.008 1662.17 717.008 1675.81 717.008 1682.17 678.912 1692.65C675.739 1693.55 673.786 1694.08 673.054 1694.22 675.351 1694.75 677.304 1695.23 678.912 1695.68L717.008 1706.23Z" fill-rule="evenodd"/><path d="M674.073 1656.16 667.008 1656.16 667.008 1650.16 674.073 1650.16ZM717.008 1656.16 680.793 1656.16 680.793 1650.16 717.008 1650.17Z" fill-rule="evenodd"/><path d="M711.97 1628.01 717.456 1627.16C717.834 1628.84 718.009 1630.32 718.009 1631.62 718.009 1633.78 717.659 1635.45 716.946 1636.61 716.234 1637.8 715.288 1638.63 714.123 1639.11 712.959 1639.6 710.515 1639.83 706.775 1639.83L685.66 1639.83 685.66 1644.16 680.829 1644.16 680.829 1639.83 671.734 1639.83 668.008 1633.96 680.829 1633.96 680.829 1628.01 685.66 1628.01 685.66 1633.96 707.124 1633.96C708.914 1633.97 710.063 1633.86 710.558 1633.65 711.082 1633.45 711.475 1633.11 711.766 1632.63 712.057 1632.17 712.202 1631.5 712.202 1630.61 712.202 1629.96 712.13 1629.09 711.97 1628.01Z" fill-rule="evenodd"/><path d="M717.008 1622.16 667.008 1622.16 667.008 1615.93 684.958 1615.93C681.641 1613.02 679.989 1609.34 679.975 1604.9 679.989 1602.17 680.521 1599.8 681.569 1597.79 682.631 1595.79 684.082 1594.34 685.949 1593.46 687.816 1592.6 690.53 1592.18 694.062 1592.16L717.008 1592.16 717.008 1598.4 694.062 1598.4C691.003 1598.41 688.763 1599.09 687.356 1600.43 685.963 1601.79 685.259 1603.7 685.259 1606.17 685.259 1608.02 685.733 1609.78 686.681 1611.4 687.629 1613.03 688.907 1614.19 690.515 1614.89 692.123 1615.59 694.349 1615.94 697.192 1615.93L717.008 1615.93Z" fill-rule="evenodd"/><path d="M674.073 1583.15 667.008 1583.15 667.008 1577.15 674.073 1577.15ZM717.008 1583.15 680.793 1583.15 680.793 1577.15 717.008 1577.17Z" fill-rule="evenodd"/><path d="M717.009 1567.15 680.826 1567.15 680.826 1561.72 685.962 1561.72C682.002 1559.1 680.023 1555.32 680.008 1550.35 680.023 1548.22 680.41 1546.23 681.185 1544.42 681.974 1542.63 683.007 1541.28 684.269 1540.38 685.56 1539.5 687.067 1538.86 688.803 1538.49 689.936 1538.27 691.916 1538.15 694.757 1538.15L717.009 1538.15 717.009 1544.2 695.001 1544.2C692.518 1544.21 690.654 1544.44 689.405 1544.9 688.172 1545.39 687.182 1546.22 686.436 1547.41 685.704 1548.61 685.331 1550.03 685.316 1551.63 685.331 1554.22 686.163 1556.44 687.813 1558.31 689.477 1560.19 692.619 1561.12 697.239 1561.11L717.009 1561.11Z" fill-rule="evenodd"/><path d="M702.008 1531.15 696.008 1531.15 696.008 1512.15 702.008 1512.15Z" fill-rule="evenodd"/><path d="M703.867 1482.09 704.66 1476.15C708.84 1476.81 712.098 1478.46 714.462 1481.13 716.826 1483.81 718.008 1487.1 718.008 1490.96 718.008 1495.84 716.394 1499.75 713.136 1502.72 709.892 1505.68 705.221 1507.16 699.138 1507.15 695.231 1507.16 691.8 1506.53 688.845 1505.24 685.904 1503.97 683.699 1502.04 682.214 1499.43 680.758 1496.83 680.023 1494 680.008 1490.92 680.023 1487.08 681.017 1483.92 683.007 1481.45 685.01 1479 687.851 1477.42 691.512 1476.73L692.435 1482.58C689.998 1483.15 688.168 1484.13 686.928 1485.54 685.702 1486.98 685.083 1488.69 685.068 1490.69 685.083 1493.74 686.193 1496.21 688.413 1498.1 690.647 1500.01 694.165 1500.97 698.965 1500.95 703.867 1500.97 707.427 1500.05 709.633 1498.2 711.853 1496.38 712.949 1493.98 712.949 1491.03 712.949 1488.66 712.213 1486.69 710.729 1485.11 709.244 1483.53 706.952 1482.52 703.867 1482.09Z" fill-rule="evenodd"/><path d="M717.008 1471.14 667.008 1471.14 667.008 1465.14 717.008 1465.14Z" fill-rule="evenodd"/><path d="M717.191 1431.56 711.883 1431.56C715.971 1434.35 718.008 1438.14 718.008 1442.92 718.008 1445.03 717.607 1447 716.789 1448.83 715.971 1450.66 714.938 1452.02 713.704 1452.9 712.471 1453.79 710.964 1454.42 709.157 1454.77 707.966 1455.03 706.043 1455.16 703.418 1455.14L681.008 1455.14 681.008 1449.07 701.079 1449.07C704.293 1449.09 706.445 1448.96 707.55 1448.7 709.171 1448.33 710.448 1447.54 711.352 1446.29 712.284 1445.07 712.743 1443.54 712.729 1441.7 712.743 1439.9 712.27 1438.2 711.323 1436.59 710.39 1435.01 709.099 1433.87 707.464 1433.2 705.842 1432.55 703.489 1432.23 700.391 1432.21L681.008 1432.2 681.008 1426.14 717.191 1426.14Z" fill-rule="evenodd"/><path d="M706.332 1419.14 705.38 1413.09C707.831 1412.76 709.705 1411.82 711.002 1410.26 712.3 1408.71 712.949 1406.53 712.949 1403.72 712.949 1400.93 712.372 1398.84 711.219 1397.48 710.065 1396.12 708.71 1395.44 707.153 1395.43 705.769 1395.44 704.674 1396.05 703.867 1397.23 703.319 1398.09 702.627 1400.17 701.776 1403.5 700.638 1407.99 699.657 1411.12 698.821 1412.84 697.999 1414.58 696.846 1415.89 695.361 1416.78 693.905 1417.68 692.276 1418.14 690.489 1418.12 688.874 1418.14 687.375 1417.76 685.991 1417.02 684.621 1416.29 683.468 1415.29 682.531 1414.01 681.839 1413.07 681.248 1411.76 680.743 1410.11 680.268 1408.48 680.023 1406.72 680.008 1404.81 680.023 1401.99 680.426 1399.51 681.248 1397.36 682.07 1395.23 683.18 1393.64 684.578 1392.61 685.991 1391.59 687.879 1390.89 690.215 1390.5L691.036 1396.49C689.177 1396.76 687.706 1397.55 686.654 1398.85 685.602 1400.16 685.083 1402.01 685.068 1404.38 685.083 1407.21 685.544 1409.21 686.481 1410.4 687.418 1411.62 688.514 1412.22 689.768 1412.21 690.575 1412.22 691.296 1411.98 691.916 1411.46 692.593 1410.97 693.141 1410.19 693.559 1409.11 693.804 1408.51 694.323 1406.7 695.13 1403.7 696.312 1399.37 697.279 1396.35 697.999 1394.63 698.749 1392.92 699.83 1391.58 701.243 1390.6 702.67 1389.63 704.414 1389.14 706.505 1389.14 708.566 1389.14 710.512 1389.74 712.314 1390.93 714.131 1392.12 715.529 1393.84 716.524 1396.07 717.518 1398.34 718.008 1400.87 718.008 1403.7 718.008 1408.41 717.028 1411.99 715.068 1414.44 713.107 1416.91 710.195 1418.47 706.332 1419.14Z" fill-rule="evenodd"/><path d="M711.97 1368.05 717.456 1367.14C717.834 1368.92 718.009 1370.49 718.009 1371.87 718.009 1374.15 717.659 1375.92 716.946 1377.15 716.234 1378.41 715.288 1379.29 714.123 1379.8 712.959 1380.31 710.515 1380.56 706.775 1380.56L685.66 1380.56 685.66 1385.14 680.829 1385.14 680.829 1380.56 671.734 1380.56 668.008 1374.34 680.829 1374.34 680.829 1368.05 685.66 1368.05 685.66 1374.34 707.124 1374.34C708.914 1374.35 710.063 1374.24 710.558 1374.02 711.082 1373.8 711.475 1373.45 711.766 1372.93 712.057 1372.45 712.202 1371.73 712.202 1370.8 712.202 1370.11 712.13 1369.19 711.97 1368.05Z" fill-rule="evenodd"/><path d="M705.481 1337.61 706.26 1331.33C710.008 1332.34 712.891 1334.17 714.938 1336.84 716.985 1339.52 718.008 1342.93 718.008 1347.07 718.008 1352.32 716.379 1356.48 713.093 1359.53 709.835 1362.61 705.236 1364.15 699.311 1364.13 693.213 1364.15 688.47 1362.6 685.083 1359.48 681.709 1356.38 680.023 1352.35 680.008 1347.41 680.023 1342.63 681.681 1338.73 684.982 1335.69 688.297 1332.67 692.939 1331.15 698.936 1331.13 699.311 1331.15 699.859 1331.16 700.58 1331.16L700.58 1357.86C704.587 1357.65 707.658 1356.53 709.763 1354.52 711.896 1352.54 712.949 1350.05 712.949 1347.04 712.949 1344.83 712.358 1342.93 711.175 1341.35 709.993 1339.78 708.105 1338.53 705.481 1337.61ZM695.52 1357.52 695.52 1337.53C692.464 1337.8 690.172 1338.57 688.629 1339.82 686.265 1341.76 685.083 1344.28 685.068 1347.34 685.083 1350.15 686.02 1352.49 687.908 1354.38 689.811 1356.28 692.348 1357.33 695.52 1357.52Z" fill-rule="evenodd"/><path d="M717.009 1323.13 680.826 1323.13 680.826 1317.79 686.307 1317.79C683.753 1316.44 682.06 1315.18 681.242 1314.03 680.424 1312.88 680.023 1311.62 680.008 1310.21 680.023 1308.23 680.668 1306.19 681.974 1304.13L687.669 1306.17C686.794 1307.62 686.35 1309.08 686.335 1310.51 686.35 1311.82 686.751 1312.99 687.555 1314.01 688.373 1315.06 689.491 1315.79 690.912 1316.21 693.107 1316.89 695.489 1317.22 698.071 1317.21L717.009 1317.21Z" fill-rule="evenodd"/><path d="M706.332 1283.13 705.38 1277.08C707.831 1276.75 709.705 1275.81 711.002 1274.24 712.3 1272.7 712.949 1270.52 712.949 1267.71 712.949 1264.92 712.372 1262.83 711.219 1261.46 710.065 1260.1 708.71 1259.43 707.153 1259.42 705.769 1259.43 704.674 1260.03 703.867 1261.22 703.319 1262.08 702.627 1264.16 701.776 1267.48 700.638 1271.98 699.657 1275.1 698.821 1276.82 697.999 1278.57 696.846 1279.87 695.361 1280.76 693.905 1281.67 692.276 1282.12 690.489 1282.11 688.874 1282.12 687.375 1281.75 685.991 1281.01 684.621 1280.28 683.468 1279.27 682.531 1278 681.839 1277.05 681.248 1275.75 680.743 1274.1 680.268 1272.47 680.023 1270.71 680.008 1268.8 680.023 1265.98 680.426 1263.5 681.248 1261.35 682.07 1259.22 683.18 1257.62 684.578 1256.59 685.991 1255.58 687.879 1254.87 690.215 1254.49L691.036 1260.48C689.177 1260.75 687.706 1261.54 686.654 1262.84 685.602 1264.14 685.083 1265.99 685.068 1268.37 685.083 1271.19 685.544 1273.2 686.481 1274.39 687.418 1275.61 688.514 1276.21 689.768 1276.19 690.575 1276.21 691.296 1275.96 691.916 1275.45 692.593 1274.96 693.141 1274.17 693.559 1273.1 693.804 1272.5 694.323 1270.69 695.13 1267.68 696.312 1263.36 697.279 1260.33 697.999 1258.61 698.749 1256.91 699.83 1255.56 701.243 1254.59 702.67 1253.61 704.414 1253.13 706.505 1253.13 708.566 1253.13 710.512 1253.73 712.314 1254.92 714.131 1256.11 715.529 1257.83 716.524 1260.06 717.518 1262.32 718.008 1264.86 718.008 1267.68 718.008 1272.4 717.028 1275.98 715.068 1278.43 713.107 1280.89 710.195 1282.45 706.332 1283.13Z" fill-rule="evenodd"/><path d="M717.191 1222.54 711.883 1222.54C715.971 1225.33 718.008 1229.12 718.008 1233.9 718.008 1236.01 717.607 1237.98 716.789 1239.81 715.971 1241.64 714.938 1243 713.704 1243.88 712.471 1244.77 710.964 1245.4 709.157 1245.75 707.966 1246.01 706.043 1246.14 703.418 1246.12L681.008 1246.12 681.008 1240.05 701.079 1240.05C704.293 1240.07 706.445 1239.94 707.55 1239.68 709.171 1239.31 710.448 1238.52 711.352 1237.27 712.284 1236.05 712.743 1234.52 712.729 1232.68 712.743 1230.88 712.27 1229.18 711.323 1227.57 710.39 1225.98 709.099 1224.85 707.464 1224.18 705.842 1223.53 703.489 1223.21 700.391 1223.19L681.008 1223.18 681.008 1217.12 717.191 1217.12Z" fill-rule="evenodd"/><path d="M717.009 1207.12 680.826 1207.12 680.826 1201.64 685.905 1201.64C684.14 1200.51 682.705 1199 681.63 1197.11 680.553 1195.25 680.023 1193.1 680.008 1190.67 680.023 1188 680.582 1185.81 681.687 1184.09 682.806 1182.38 684.355 1181.18 686.335 1180.46 682.132 1177.61 680.023 1173.88 680.008 1169.29 680.023 1165.72 681.013 1162.97 682.992 1161.02 684.986 1159.09 688.042 1158.12 692.174 1158.12L717.009 1158.12 717.009 1164.21 694.212 1164.21C691.773 1164.23 690.008 1164.43 688.918 1164.82 687.856 1165.22 686.981 1165.93 686.307 1166.97 685.661 1168.01 685.331 1169.25 685.316 1170.65 685.331 1173.21 686.178 1175.31 687.856 1176.99 689.563 1178.67 692.275 1179.5 695.991 1179.5L717.009 1179.5 717.009 1185.64 693.494 1185.64C690.783 1185.65 688.746 1186.15 687.368 1187.14 686.02 1188.15 685.331 1189.78 685.316 1192.03 685.331 1193.78 685.79 1195.38 686.68 1196.82 687.598 1198.3 688.918 1199.36 690.668 1200.01 692.418 1200.68 694.943 1201.01 698.229 1201L717.009 1201Z" fill-rule="evenodd"/><path d="M699.008 1132.11C692.276 1132.11 687.288 1130.26 684.045 1126.52 681.364 1123.41 680.023 1119.59 680.008 1115.1 680.023 1110.13 681.652 1106.05 684.924 1102.87 688.196 1099.71 692.723 1098.13 698.489 1098.11 703.175 1098.13 706.851 1098.83 709.532 1100.23 712.213 1101.64 714.303 1103.67 715.788 1106.34 717.273 1109.02 718.008 1111.94 718.008 1115.1 718.008 1120.18 716.379 1124.3 713.122 1127.42 709.864 1130.56 705.164 1132.11 699.008 1132.11ZM699.008 1125.8C703.665 1125.81 707.153 1124.8 709.474 1122.76 711.795 1120.75 712.949 1118.18 712.949 1115.1 712.949 1112.05 711.795 1109.52 709.46 1107.49 707.139 1105.46 703.578 1104.44 698.806 1104.44 694.309 1104.44 690.907 1105.46 688.586 1107.51 686.279 1109.55 685.126 1112.08 685.111 1115.1 685.126 1118.18 686.279 1120.75 688.571 1122.76 690.878 1124.8 694.352 1125.81 699.008 1125.8Z" fill-rule="evenodd"/><path d="M717.008 1089.73 685.466 1089.73 685.466 1095.11 680.684 1095.11 680.684 1089.73 676.81 1089.73C674.376 1089.73 672.561 1089.51 671.38 1089.08 669.796 1088.5 668.514 1087.48 667.506 1086 666.527 1084.53 666.023 1082.46 666.008 1079.79 666.023 1078.08 666.224 1076.19 666.627 1074.11L671.985 1075.02C671.769 1076.29 671.668 1077.48 671.654 1078.61 671.668 1080.47 672.057 1081.78 672.849 1082.54 673.656 1083.3 675.154 1083.69 677.329 1083.67L680.684 1083.67 680.684 1076.67 685.466 1076.67 685.466 1083.67 717.008 1083.67Z" fill-rule="evenodd"/><path d="M706.332 1055.1 705.38 1049.06C707.831 1048.73 709.705 1047.78 711.002 1046.22 712.3 1044.67 712.949 1042.5 712.949 1039.69 712.949 1036.9 712.372 1034.8 711.219 1033.44 710.065 1032.08 708.71 1031.41 707.153 1031.39 705.769 1031.41 704.674 1032.01 703.867 1033.2 703.319 1034.06 702.627 1036.14 701.776 1039.46 700.638 1043.96 699.657 1047.08 698.821 1048.8 697.999 1050.55 696.846 1051.85 695.361 1052.74 693.905 1053.64 692.276 1054.1 690.489 1054.09 688.874 1054.1 687.375 1053.73 685.991 1052.98 684.621 1052.25 683.468 1051.25 682.531 1049.98 681.839 1049.03 681.248 1047.73 680.743 1046.08 680.268 1044.45 680.023 1042.68 680.008 1040.78 680.023 1037.96 680.426 1035.48 681.248 1033.33 682.07 1031.19 683.18 1029.6 684.578 1028.57 685.991 1027.55 687.879 1026.85 690.215 1026.47L691.036 1032.45C689.177 1032.73 687.706 1033.51 686.654 1034.82 685.602 1036.12 685.083 1037.97 685.068 1040.35 685.083 1043.17 685.544 1045.18 686.481 1046.36 687.418 1047.58 688.514 1048.18 689.768 1048.17 690.575 1048.18 691.296 1047.94 691.916 1047.43 692.593 1046.94 693.141 1046.15 693.559 1045.08 693.804 1044.47 694.323 1042.67 695.13 1039.66 696.312 1035.33 697.279 1032.31 697.999 1030.59 698.749 1028.89 699.83 1027.54 701.243 1026.57 702.67 1025.59 704.414 1025.1 706.505 1025.1 708.566 1025.1 710.512 1025.71 712.314 1026.89 714.131 1028.08 715.529 1029.8 716.524 1032.04 717.518 1034.3 718.008 1036.84 718.008 1039.66 718.008 1044.37 717.028 1047.96 715.068 1050.41 713.107 1052.87 710.195 1054.43 706.332 1055.1Z" fill-rule="evenodd"/><path d="M731.009 994.371 713.246 994.371C714.598 995.352 715.72 996.714 716.597 998.457 717.489 1000.21 717.921 1002.07 717.921 1004.04 717.921 1008.43 716.209 1012.19 712.772 1015.36 709.334 1018.52 704.617 1020.1 698.619 1020.1 694.981 1020.1 691.716 1019.46 688.825 1018.17 685.934 1016.88 683.748 1015.02 682.252 1012.58 680.77 1010.13 680.023 1007.45 680.008 1004.52 680.023 999.966 681.907 996.363 685.675 993.741L680.828 993.741 680.828 988.103 731.009 988.103ZM698.864 1013.67C703.552 1013.69 707.047 1012.69 709.378 1010.69 711.707 1008.69 712.872 1006.31 712.872 1003.51 712.872 1000.86 711.765 998.56 709.536 996.626 707.321 994.708 703.941 993.741 699.41 993.741 694.578 993.741 690.953 994.767 688.508 996.787 686.092 998.823 684.869 1001.2 684.855 1003.93 684.869 1006.64 686.006 1008.94 688.264 1010.83 690.536 1012.74 694.074 1013.69 698.864 1013.67Z" fill-rule="evenodd"/><path d="M717.191 955.513 711.883 955.513C715.971 958.306 718.008 962.093 718.008 966.871 718.008 968.984 717.607 970.955 716.789 972.785 715.971 974.614 714.938 975.975 713.704 976.854 712.471 977.748 710.964 978.372 709.157 978.726 707.966 978.982 706.043 979.109 703.418 979.095L681.008 979.095 681.008 973.026 701.079 973.026C704.293 973.04 706.445 972.912 707.55 972.657 709.171 972.288 710.448 971.494 711.352 970.246 712.284 969.027 712.743 967.496 712.729 965.652 712.743 963.851 712.27 962.15 711.323 960.547 710.39 958.959 709.099 957.824 707.464 957.158 705.842 956.506 703.489 956.179 700.391 956.165L681.008 956.151 681.008 950.096 717.191 950.096Z" fill-rule="evenodd"/><path d="M712.703 916.653C714.664 918.913 716.034 921.073 716.812 923.148 717.619 925.223 718.008 927.454 718.008 929.841 718.008 933.792 717.043 936.819 715.082 938.923 713.15 941.04 710.657 942.106 707.6 942.092 705.842 942.106 704.212 941.708 702.728 940.898 701.257 940.116 700.075 939.065 699.181 937.757 698.302 936.464 697.624 935 697.163 933.38 696.846 932.2 696.543 930.41 696.226 927.994 695.65 923.091 694.943 919.481 694.107 917.15 693.271 917.15 692.737 917.136 692.507 917.122 689.998 917.136 688.225 917.704 687.202 918.841 685.818 920.405 685.126 922.721 685.111 925.763 685.126 928.633 685.63 930.737 686.64 932.087 687.663 933.465 689.451 934.475 692.017 935.114L691.195 941.055C688.629 940.515 686.553 939.633 684.953 938.383 683.382 937.16 682.156 935.37 681.291 933.011 680.441 930.68 680.023 927.966 680.008 924.881 680.023 921.826 680.383 919.339 681.104 917.42 681.839 915.516 682.762 914.109 683.857 913.199 684.982 912.304 686.38 911.679 688.052 911.309 689.119 911.124 691.007 911.025 693.732 911.011L701.949 911.011C707.687 911.025 711.305 910.897 712.819 910.627 714.347 910.371 715.803 909.86 717.187 909.092L717.187 915.43C715.918 916.056 714.433 916.468 712.703 916.653ZM698.936 917.15C699.859 919.367 700.638 922.664 701.272 927.07 701.647 929.571 702.065 931.348 702.511 932.371 702.973 933.423 703.636 934.219 704.515 934.773 705.395 935.341 706.375 935.625 707.427 935.612 709.085 935.625 710.455 935.015 711.536 933.778 712.646 932.556 713.194 930.751 713.179 928.392 713.194 926.061 712.675 923.986 711.622 922.153 710.599 920.333 709.172 918.998 707.355 918.131 705.986 917.491 703.939 917.164 701.2 917.15Z" fill-rule="evenodd"/><path d="M717.009 901.087 680.826 901.087 680.826 895.747 686.307 895.747C683.753 894.402 682.06 893.14 681.242 891.989 680.424 890.838 680.023 889.575 680.008 888.175 680.023 886.192 680.668 884.153 681.974 882.086L687.669 884.125C686.794 885.581 686.35 887.038 686.335 888.466 686.35 889.784 686.751 890.948 687.555 891.975 688.373 893.015 689.491 893.75 690.912 894.166 693.107 894.846 695.489 895.178 698.071 895.164L717.009 895.164Z" fill-rule="evenodd"/><path d="M705.481 853.558 706.26 847.285C710.008 848.292 712.891 850.124 714.938 852.792 716.985 855.474 718.008 858.881 718.008 863.026 718.008 868.277 716.379 872.436 713.093 875.487 709.835 878.568 705.236 880.1 699.311 880.086 693.213 880.1 688.47 878.553 685.083 875.431 681.709 872.337 680.023 868.306 680.008 863.366 680.023 858.583 681.681 854.68 684.982 851.642 688.297 848.619 692.939 847.1 698.936 847.086 699.311 847.1 699.859 847.114 700.58 847.114L700.58 873.813C704.587 873.6 707.658 872.479 709.763 870.477 711.896 868.49 712.949 866.006 712.949 862.997 712.949 860.783 712.358 858.881 711.175 857.306 709.993 855.73 708.105 854.481 705.481 853.558ZM695.52 873.472 695.52 853.487C692.464 853.757 690.172 854.524 688.629 855.772 686.265 857.717 685.083 860.229 685.068 863.295 685.083 866.106 686.02 868.447 687.908 870.335 689.811 872.237 692.348 873.288 695.52 873.472Z" fill-rule="evenodd"/><path d="M706.332 842.083 705.38 836.037C707.831 835.708 709.705 834.762 711.002 833.201 712.3 831.653 712.949 829.476 712.949 826.668 712.949 823.874 712.372 821.782 711.219 820.421 710.065 819.06 708.71 818.387 707.153 818.372 705.769 818.387 704.674 818.989 703.867 820.178 703.319 821.037 702.627 823.115 701.776 826.438 700.638 830.937 699.657 834.06 698.821 835.779 697.999 837.527 696.846 838.831 695.361 839.719 693.905 840.622 692.276 841.08 690.489 841.066 688.874 841.08 687.375 840.708 685.991 839.963 684.621 839.232 683.468 838.229 682.531 836.954 681.839 836.009 681.248 834.705 680.743 833.057 680.268 831.424 680.023 829.662 680.008 827.756 680.023 824.934 680.426 822.456 681.248 820.307 682.07 818.172 683.18 816.582 684.578 815.55 685.991 814.533 687.879 813.831 690.215 813.444L691.036 819.433C689.177 819.705 687.706 820.493 686.654 821.796 685.602 823.1 685.083 824.949 685.068 827.327 685.083 830.149 685.544 832.155 686.481 833.344 687.418 834.562 688.514 835.163 689.768 835.149 690.575 835.163 691.296 834.92 691.916 834.404 692.593 833.917 693.141 833.129 693.559 832.055 693.804 831.453 694.323 829.648 695.13 826.639 696.312 822.312 697.279 819.289 697.999 817.57 698.749 815.865 699.83 814.519 701.243 813.544 702.67 812.57 704.414 812.083 706.505 812.083 708.566 812.083 710.512 812.685 712.314 813.874 714.131 815.063 715.529 816.782 716.524 819.017 717.518 821.281 718.008 823.817 718.008 826.639 718.008 831.352 717.028 834.934 715.068 837.384 713.107 839.848 710.195 841.41 706.332 842.083Z" fill-rule="evenodd"/><path d="M732.008 773.608C727.685 777.114 722.654 780.073 716.9 782.47 711.131 784.897 705.16 786.095 698.972 786.08 693.536 786.095 688.317 785.193 683.314 783.388 677.531 781.287 671.763 778.031 666.008 773.608L666.008 769.08C670.779 771.921 674.177 773.8 676.201 774.703 679.367 776.153 682.664 777.277 686.09 778.076 690.384 779.097 694.693 779.6 699.001 779.585 710.032 779.6 721.02 776.093 732.008 769.08Z" fill-rule="evenodd"/><path d="M717.008 752.866 667.008 766.076 667.008 759.314 699.791 751.737C703.238 750.936 706.641 750.236 710.016 749.636 704.688 748.378 701.615 747.635 700.782 747.391L667.008 737.928 667.008 729.98 692.325 722.846C698.599 721.074 704.501 719.773 710.016 718.972 706.871 718.343 703.252 717.529 699.145 716.5L667.008 708.694 667.008 702.075 717.008 715.713 717.008 722.074 678.912 732.553C675.739 733.454 673.786 733.982 673.054 734.125 675.351 734.654 677.304 735.14 678.912 735.583L717.008 746.133Z" fill-rule="evenodd"/><path d="M700.993 698.07 700.444 691.805C702.986 691.516 705.052 690.823 706.655 689.726 708.273 688.658 709.573 686.969 710.555 684.674 711.552 682.393 712.043 679.823 712.043 676.951 712.043 674.439 711.668 672.202 710.916 670.239 710.165 668.304 709.14 666.861 707.811 665.908 706.511 664.97 705.066 664.493 703.506 664.479 701.932 664.493 700.56 664.941 699.375 665.85 698.205 666.774 697.209 668.29 696.399 670.368 695.879 671.74 695.071 674.728 693.958 679.333 692.846 683.952 691.792 687.171 690.809 689.019 689.553 691.43 687.993 693.219 686.129 694.389 684.266 695.572 682.186 696.164 679.86 696.15 677.347 696.164 674.978 695.442 672.754 693.999 670.558 692.556 668.882 690.462 667.727 687.691 666.6 684.934 666.023 681.859 666.008 678.467 666.023 674.757 666.629 671.465 667.813 668.607 669.027 665.764 670.789 663.569 673.115 662.039 675.455 660.509 678.098 659.686 681.031 659.571L681.507 665.951C678.344 666.312 675.946 667.467 674.314 669.445 672.696 671.422 671.873 674.338 671.873 678.192 671.873 682.22 672.609 685.15 674.083 686.983 675.556 688.831 677.347 689.755 679.427 689.741 681.247 689.755 682.72 689.105 683.876 687.792 685.046 686.521 686.245 683.187 687.473 677.774 688.701 672.375 689.77 668.665 690.68 666.644 692.037 663.728 693.756 661.563 695.807 660.163 697.887 658.777 700.271 658.084 702.957 658.069 705.644 658.084 708.158 658.849 710.527 660.365 712.895 661.909 714.744 664.103 716.044 666.962 717.359 669.834 717.994 673.068 718.009 676.648 717.994 681.209 717.344 685.02 716.03 688.095 714.701 691.17 712.707 693.581 710.035 695.327 707.378 697.074 704.359 697.983 700.993 698.07Z" fill-rule="evenodd"/><path d="M700.993 651.064 700.444 644.955C702.986 644.674 705.052 643.998 706.655 642.928 708.273 641.887 709.573 640.24 710.555 638.003 711.552 635.779 712.043 633.273 712.043 630.473 712.043 628.024 711.668 625.842 710.916 623.928 710.165 622.042 709.14 620.634 707.811 619.706 706.511 618.791 705.066 618.326 703.506 618.312 701.932 618.326 700.56 618.763 699.375 619.649 698.205 620.55 697.209 622.028 696.399 624.055 695.879 625.392 695.071 628.305 693.958 632.795 692.846 637.299 691.792 640.437 690.809 642.239 689.553 644.589 687.993 646.335 686.129 647.474 684.266 648.629 682.186 649.206 679.86 649.191 677.347 649.206 674.978 648.502 672.754 647.095 670.558 645.687 668.882 643.646 667.727 640.944 666.6 638.256 666.023 635.258 666.008 631.95 666.023 628.333 666.629 625.124 667.813 622.338 669.027 619.565 670.789 617.426 673.115 615.933 675.455 614.442 678.098 613.639 681.031 613.527L681.507 619.748C678.344 620.1 675.946 621.226 674.314 623.154 672.696 625.082 671.873 627.925 671.873 631.683 671.873 635.61 672.609 638.467 674.083 640.254 675.556 642.056 677.347 642.957 679.427 642.943 681.247 642.957 682.72 642.323 683.876 641.042 685.046 639.804 686.245 636.553 687.473 631.275 688.701 626.011 689.77 622.394 690.68 620.423 692.037 617.58 693.756 615.469 695.807 614.104 697.887 612.753 700.271 612.077 702.957 612.063 705.644 612.077 708.158 612.823 710.527 614.301 712.895 615.807 714.744 617.946 716.044 620.733 717.359 623.534 717.994 626.687 718.009 630.177 717.994 634.625 717.344 638.34 716.03 641.338 714.701 644.336 712.707 646.686 710.035 648.389 707.378 650.092 704.359 650.979 700.993 651.064Z" fill-rule="evenodd"/><path d="M732.008 599.524 732.008 604.062C721.02 597.055 710.032 593.552 699.001 593.552 694.721 593.552 690.442 594.054 686.191 595.059 682.765 595.858 679.468 596.981 676.302 598.4 674.249 599.331 670.823 601.209 666.008 604.047L666.008 599.524C671.763 595.133 677.531 591.881 683.314 589.767 688.317 587.978 693.536 587.076 698.972 587.062 705.16 587.076 711.131 588.289 716.9 590.698 722.654 593.137 727.685 596.079 732.008 599.524Z" fill-rule="evenodd"/><path d="M1842.86 1876.86 1890.88 1892.56 2013.87 1516.33 2109.93 1547.73 1986.94 1923.96 2034.96 1939.66 1907.51 2004.31Z" stroke="#FF0000" stroke-width="4.58333" stroke-miterlimit="8" fill="none" fill-rule="evenodd"/></g></svg>